<svg width="800" height="73" viewBox="0 0 800 73" fill="none" xmlns="http://www.w3.org/2000/svg">
<path d="M26.7073 20.6698C27.6868 21.578 29.254 23.459 29.6458 24.7563C30.2988 26.6374 29.907 28.5185 29.6458 30.5942C29.6458 30.8536 29.3193 31.178 29.3193 31.5023C29.3193 31.7617 29.3846 32.0861 29.3846 32.4104C28.4051 37.3401 25.5973 40.8428 22.7894 44.4104C24.1607 44.9942 25.2708 45.7077 26.5767 46.2915C26.2502 46.8753 26.5114 46.3563 26.8379 46.5509C29.5805 49.4698 31.6048 52.259 31.2783 57.6428C31.0824 60.1077 29.1887 62.8969 27.8174 64.5834C27.0991 65.4915 26.642 65.8807 25.6626 66.7239C25.2708 67.0482 25.0096 67.4374 24.6831 67.7617C22.92 68.9942 20.6998 69.2536 18.8061 70.1617C17.5002 70.4212 15.8677 70.8104 14.1046 70.8104C12.9292 70.8104 12.015 71.0698 10.905 71.0698C9.59897 71.1347 8.03179 70.8753 6.26872 70.8753C4.17914 70.8104 1.56718 70.6158 1.95897 67.9563C1.30598 67.6969 0.457094 67.5671 0.391795 66.7239C1.37128 66.7888 1.11009 66.205 1.63248 65.8807C0.78359 57.1239 1.69778 49.2753 1.43658 40.5834C1.37128 36.2374 1.63248 32.7347 2.02427 27.6753C2.22017 25.859 2.61196 24.2374 2.74256 22.4861C2.02427 22.4861 0.979487 22.0969 1.24068 21.9023C1.30598 21.7077 1.63248 21.8374 1.82838 21.7077C1.50188 21.4482 0.261196 21.7077 0.522393 21.4482C1.11009 21.059 0.261196 20.7996 0 20.4753C0.261196 19.8266 0.0652991 19.5671 0 18.7239C0.326496 18.7239 0.261196 18.9834 0.652991 18.9185C7.7706 15.9996 15.0188 16.0644 22.0058 18.3347C23.6383 18.9834 25.6626 19.632 26.7073 20.6698ZM13.7781 39.9996C15.6718 37.859 17.7614 33.2536 19.002 29.6212C19.5897 28.0644 19.7203 24.7563 18.4797 23.7834C16.9125 22.4212 13.5822 22.8753 11.4926 22.2915C12.6027 28.1293 13.7781 33.4482 13.7781 39.9996ZM13.9087 48.8212C14.1046 53.6861 13.974 59.5888 14.1046 64.778C15.6718 64.3888 17.0431 63.8698 18.2838 63.1563C19.4591 62.4428 20.6998 61.5347 21.3528 60.2374C22.0058 58.9401 22.3323 56.7347 22.0711 54.8536C21.6793 51.2212 18.9367 47.7185 15.0841 49.2104C14.7576 49.0158 14.4311 48.8861 14.1046 48.8212C14.0393 48.6915 13.9087 48.8212 13.9087 48.8212Z" fill="white"/>
<path d="M41.2698 16.5829C42.2493 17.1666 43.4247 17.1018 44.4042 17.2315C45.9713 17.7504 47.1467 18.8531 48.3874 19.4369C49.2363 20.6045 48.9098 22.4856 48.6486 24.0423C48.6486 24.3018 48.8445 24.3666 49.0404 24.5612C48.1262 26.3774 48.7792 28.3234 48.7792 30.9829C49.171 38.0531 48.2568 47.9774 49.171 56.4099C49.3669 58.1612 50.0852 59.5234 50.8035 60.8207C51.5218 61.3396 52.0442 61.8585 53.0889 61.8585C56.7457 61.8585 58.3129 58.9396 59.423 55.1126C60.0106 53.2964 60.0759 50.5072 60.2718 48.3018C60.3371 45.3829 60.0106 29.2315 60.0106 25.3396C60.0106 22.5504 60.0106 20.0207 60.5983 17.8802C61.2513 17.491 62.3614 17.5558 62.3614 16.9072C62.7532 16.7126 62.6879 17.1018 62.8838 17.1666C63.145 16.1937 64.451 16.518 64.7775 17.4261C65.2999 17.6207 64.8428 16.9072 65.2999 16.9072C65.6264 17.6207 65.6917 18.1396 65.9529 18.6585C66.1488 18.918 66.5406 19.2423 66.6059 19.5666C66.8018 19.9558 66.8018 20.7991 66.8018 21.1234C66.8671 23.3288 67.1936 25.6639 67.1936 28.0639C67.1936 34.5504 67.52 50.118 66.6712 53.7504C66.41 54.918 66.0835 56.4747 65.6917 57.5774C65.3652 58.8099 65.0387 59.7828 64.5163 60.7558C64.2551 61.5991 63.6674 62.3126 63.2103 63.0261C62.2308 64.7774 61.9043 65.5558 60.4024 66.7883C59.6842 67.4369 59.0312 68.0207 58.117 68.6693C56.7457 69.8369 53.4807 70.8747 50.9994 71.1342C50.477 71.1991 49.824 71.1991 49.2363 71.1991C47.9303 71.1991 45.4489 70.6801 44.6001 70.1612C43.2941 69.2531 41.4004 67.891 40.4862 66.7234C39.9638 66.0747 39.6373 64.972 39.1149 64.1937C38.266 62.8964 38.1354 62.0531 37.5478 60.3666C37.2866 59.4585 36.8948 58.5504 36.8295 57.5774C35.9806 50.118 36.7642 41.3612 36.7642 33.3829C36.7642 30.5288 36.5683 27.091 36.1765 24.3018C36.1112 23.9774 35.9153 23.6531 35.9153 23.3288C35.85 22.4207 35.5888 21.772 34.9358 21.0585C35.197 21.0585 35.3276 20.8639 35.4582 20.7342C35.1317 20.345 35.85 20.0856 35.2623 19.8261C35.2623 19.5018 35.7847 19.6315 35.9153 19.3072C35.6541 18.3342 36.9601 17.945 37.4825 17.1018C37.6784 17.0369 37.5478 17.2964 37.7437 17.2964C37.9395 17.2315 37.9395 16.9072 38.0048 16.7126C38.6578 17.0369 39.2455 16.518 39.9638 16.4531C40.4209 16.6477 40.6821 16.8423 41.2698 16.5829ZM50.0852 69.8369C49.5628 69.9018 49.171 69.6423 48.5833 69.6423C48.7792 70.1612 49.8893 70.1612 50.0852 69.8369ZM50.6729 69.772C50.9341 70.0315 51.0647 69.772 50.9994 70.1612C52.1748 69.9666 53.9378 69.772 54.3296 68.9288C53.2195 69.4477 51.7177 69.3828 50.6729 69.772ZM54.7867 69.1234C57.2028 68.8639 60.0106 66.3342 60.7289 64.972C58.0517 67.2423 55.2438 68.6045 54.7867 69.1234Z" fill="white"/>
<path d="M91.0276 17.8159C100.3 20.0213 107.026 26.6375 105.655 39.2213C105.328 42.3997 104.675 45.4483 103.761 48.0429C103.173 49.6645 100.953 55.3078 99.4512 57.2537C96.0556 61.8591 92.4642 64.5186 90.1134 66.2051C89.0686 67.0483 86.9791 68.3456 85.8037 68.9294C84.1712 69.7727 82.7346 70.551 80.5144 71.0051C78.882 71.1997 77.3801 71.5889 75.5517 71.3294C75.2252 70.097 74.5069 69.124 74.2457 67.8267C73.5274 64.3889 73.9192 60.3024 73.9845 56.5402C73.9845 52.7132 74.2457 48.8213 74.2457 45.124C74.311 37.2754 73.3315 29.1673 74.311 22.1618C74.5722 21.4483 73.658 20.9943 74.311 20.3456C74.8334 19.9564 74.5722 19.697 73.9845 19.4375C74.311 19.0483 73.5927 18.2051 73.9845 17.5564C75.2252 18.0754 75.8129 17.751 76.5965 17.5564C77.9678 17.2321 80.9715 17.1673 84.3671 17.0375C86.6526 16.9727 89.0033 17.297 91.0276 17.8159ZM86.7832 35.7835C87.3709 44.4754 87.3055 54.2051 86.7179 61.9889C87.5667 61.4051 88.0891 60.4321 88.6768 59.524C90.5052 56.7348 91.8112 54.0105 92.7254 50.4429C93.4437 47.9781 94.0314 45.3835 94.3578 42.4645C95.2067 35.07 94.7496 28.3889 90.7011 24.951C89.7216 24.1078 88.4809 23.4591 86.6526 23.6537C86.7179 26.5727 86.4567 31.6321 86.7832 35.7835Z" fill="white"/>
<path d="M114.862 16.583C115.841 16.3235 117.343 16.7776 116.69 18.0749C117.604 18.4641 117.67 17.556 118.584 17.7506C119.302 17.8154 119.89 18.7884 121.065 18.4641C121.653 19.0478 121.457 19.6316 121.457 20.5397C122.11 20.6046 122.437 20.8641 122.828 21.0587C122.632 27.4803 122.175 37.0154 122.11 43.3722C122.045 43.7614 122.306 44.0208 122.306 44.3451C121.718 50.4424 121.065 56.9938 120.935 60.1073C120.869 62.5722 120.608 65.6208 120.739 68.2154C120.739 68.5397 120.478 68.6046 120.151 68.9289C120.216 69.4479 120.347 69.9668 120.151 70.2262C119.89 70.1614 119.498 70.2911 119.237 70.0316C119.041 70.6803 118.061 70.2262 117.931 70.9397C117.604 71.0046 117.735 70.5506 117.343 70.5506C117.147 70.7452 117.343 70.9397 117.539 71.0695C117.213 71.0695 116.56 71.0695 116.233 71.4587C115.907 70.81 114.862 71.0695 114.927 70.2262C114.731 70.4857 114.209 70.5506 113.882 70.4857C112.25 66.1397 112.054 60.8857 111.662 56.1506C111.466 52.7127 111.401 49.8587 111.401 46.0965C111.336 43.2424 111.14 39.5451 111.074 36.237C111.009 33.837 110.748 31.5019 110.683 29.2965C110.487 27.5451 110.748 22.7451 110.421 21.1884C110.356 20.6695 109.768 20.0208 110.03 19.3073C110.356 19.2424 110.552 19.3722 110.879 19.3722C110.944 18.7884 110.291 18.6587 110.487 18.2046C110.748 17.8154 111.532 17.8803 112.25 17.8154C112.511 17.4262 111.401 17.4911 111.205 17.1668C111.858 17.1019 112.707 16.9073 113.099 17.1019C113.164 16.583 112.119 16.9073 112.185 16.5181C112.772 16.1289 114.078 16.2587 114.797 16.3235C114.862 16.0641 114.797 16.5181 114.862 16.583ZM112.772 57.7073C113.425 57.6424 112.576 56.4749 113.099 56.3451C113.295 56.3451 113.752 61.21 113.425 60.8857C113.621 62.4424 113.752 64.7127 114.274 66.5938C114.601 66.2695 114.535 65.7506 114.47 65.3614C114.405 62.0533 113.229 54.983 113.621 54.983C113.817 54.983 113.686 55.6316 113.882 55.6965C114.209 55.6965 113.621 52.1938 113.621 50.637C113.817 50.4424 114.144 52.5181 114.274 52.4533C114.535 52.4533 114.274 48.1722 113.948 47.1992C113.752 47.5884 114.144 50.3776 113.882 50.3776C113.556 48.8208 113.229 46.5506 113.556 45.1884C113.817 45.1884 113.621 46.1614 113.948 46.356C114.209 45.5127 113.948 44.2154 113.686 43.437C113.295 43.6316 113.948 44.7992 113.621 44.7343C112.446 41.2965 112.968 33.4478 112.38 33.7722C112.446 39.2857 112.38 57.7073 112.772 57.7073ZM113.686 42.7235C113.686 42.3992 114.013 40.583 113.491 40.5181C113.36 40.7776 113.295 42.01 113.686 42.7235ZM116.429 61.9884C116.494 61.3397 116.494 60.1722 116.102 59.783C116.102 60.3668 116.168 61.4046 116.429 61.9884Z" fill="white"/>
<path d="M144.051 17.4267C146.467 17.6213 148.752 17.1672 150.646 17.1672C152.213 17.8807 153.845 17.2321 155.347 17.751C156.392 18.3348 155.151 20.2807 154.76 20.4753C154.564 20.8645 155.609 20.9943 155.478 21.1889C155.217 21.8375 155.804 22.4213 155.151 22.9402C154.172 23.1997 155.347 23.4591 154.629 23.8483C152.474 24.8861 149.862 24.6916 146.467 25.0159C146.467 32.0861 146.728 41.8159 146.205 48.2375C146.01 50.4429 146.532 54.0753 146.532 56.0862C146.532 61.1456 146.728 63.5456 146.271 67.3078C146.205 68.151 146.597 69.3834 145.944 69.7726C145.683 69.7726 145.683 69.5132 145.618 69.2537C145.03 69.9672 143.789 71.1997 142.745 70.2916C142.353 70.6159 141.569 70.8105 140.982 70.551L140.002 71.7186C139.48 71.7834 139.48 71.4591 139.284 71.3294C137.455 71.978 136.215 71.0699 136.149 69.1889C135.888 65.5564 135.954 60.6916 136.215 57.7078C136.737 51.8051 135.954 42.5294 136.215 36.497C136.28 34.4213 135.954 27.1564 135.627 25.0159C133.472 24.6267 131.187 25.2105 129.358 23.7186C129.032 23.524 128.379 24.1078 128.379 23.524C128.379 23.0051 127.987 22.9402 127.987 22.4862C127.661 22.4862 127.595 22.2267 127.138 22.2267C126.093 22.2267 127.465 22.1618 126.877 20.9294C126.485 20.0213 126.942 20.0213 127.138 19.8916C126.812 18.9834 125.832 17.6213 126.877 17.6213C128.052 17.6213 127.269 16.5834 127.856 17.0375C129.424 17.5564 131.709 16.4537 134.713 16.6483C137.847 16.7132 141.047 17.2321 144.051 17.4267Z" fill="white"/>
<path d="M183.491 17.9454C183.491 18.2049 184.405 18.5292 183.752 18.7887C182.577 19.6319 183.491 20.1508 182.903 20.3454L180.096 22.4211C179.247 22.94 178.463 23.3292 177.157 23.3292C175.525 23.3292 174.023 22.94 172.129 22.94C172.064 28.3238 172.129 36.3022 172.064 42.14C175.851 41.4265 179.051 42.8535 183.295 42.0751C183.361 42.5941 183.034 43.3724 182.708 43.8265C182.512 44.8643 182.642 46.0319 182.185 46.8751C181.989 47.1346 181.663 47.2643 181.467 47.5887C181.14 47.9778 181.206 48.3022 180.879 48.4968C180.553 48.6914 179.573 48.886 178.986 48.886C177.614 49.0805 176.112 48.367 174.806 48.4968C173.892 48.5616 172.652 48.4319 171.737 48.5616C171.215 53.2319 171.346 58.8103 171.672 63.4157C175.068 64.0643 178.92 63.9995 182.25 64.7778C182.838 65.167 181.336 65.1022 181.206 65.4265C182.055 65.686 183.165 66.0103 184.34 65.686C184.144 67.0481 183.818 67.8265 183.752 69.3184C182.446 70.2914 180.422 70.6805 178.202 70.6157C176.374 70.5508 173.892 70.5508 172.26 70.5508C168.407 70.5508 165.926 71.1995 165.665 71.3941C164.489 71.1995 162.726 71.1346 162.008 70.6805C161.747 70.486 161.942 70.2914 162.073 70.1616C161.485 69.8373 161.028 69.4481 160.506 68.9941C161.028 68.1508 160.114 67.7616 159.918 67.1778C159.853 66.5941 159.983 66.0103 160.31 65.4265C160.375 64.5832 159.788 63.6103 159.983 62.6373C160.31 59.913 160.506 56.54 160.506 50.767C160.506 46.8103 160.245 28.4535 159.918 24.9508C159.722 22.3562 159.722 21.1238 159.2 21.1238C158.351 21.1238 159.004 20.086 159.853 19.9562C159.461 19.3076 159.33 19.113 159.2 18.3346C159.2 17.9454 159.592 18.9184 162.53 17.7508C164.163 17.1022 166.383 17.4265 168.081 17.3616C170.627 17.1022 173.109 17.2968 175.916 17.4265C178.724 17.4914 180.945 17.7508 184.014 17.2319C184.536 16.9724 183.622 17.8157 183.491 17.9454Z" fill="white"/>
<path d="M215.879 19.3724C216.075 19.6319 215.879 20.021 216.141 20.4102C216.532 21.3183 217.381 21.7075 217.512 22.6805C218.034 25.1454 216.924 40.3237 216.924 44.6697C216.728 51.74 216.598 61.34 217.643 67.4373C218.23 69.5778 216.01 68.1508 215.422 69.8373C215.031 71.1346 208.631 71.7183 206.999 70.0967C203.473 65.4264 204.452 56.6697 203.93 49.5346C203.734 47.7832 203.211 40.3237 203.864 28.1292C204.126 24.3021 204.779 21.1886 204.191 19.0481C203.995 18.5292 203.799 18.4643 203.669 18.14C204.191 17.2319 205.17 17.167 206.542 17.167C213.79 17.2967 215.422 19.0481 215.879 19.3724Z" fill="white"/>
<path d="M266.421 17.7511C267.27 19.3079 267.27 25.8592 266.421 33.5782C266.16 36.043 265.507 40.3241 265.18 43.1133C264.593 47.9782 262.764 55.8268 262.046 58.0322C261.72 59.0052 261.132 59.9133 260.805 60.8863C260.283 62.2484 260.087 63.3511 259.303 64.6484C258.063 66.5944 257.149 68.9944 255.908 71.1998C254.928 71.4592 253.688 72.1728 252.447 71.9133C252.186 71.8484 251.272 71.3295 249.509 68.8646C248.66 67.6971 246.44 64.1944 243.632 56.0863C243.37 55.243 242.783 53.5565 242.456 52.7133C241.803 50.3133 239.126 42.2052 237.885 33.4484C237.363 29.9457 237.559 26.8971 237.624 22.6809C237.689 21.643 238.016 20.6052 238.147 19.6322C238.212 18.6592 238.081 17.8809 238.669 17.4917C239.061 17.2322 239.387 17.4917 240.171 17.2971C240.563 17.1025 240.824 16.7782 241.15 16.7782C241.999 16.5836 242.652 16.9728 243.436 17.0376C243.958 16.9728 244.415 16.7782 244.807 16.843C245.134 16.843 246.44 17.3619 246.962 17.4917C247.288 17.6863 247.55 18.0755 248.137 17.8809C248.529 18.4646 249.117 18.8538 249.966 18.9187C250.619 19.7619 252.186 20.4106 252.447 21.4484C252.512 22.1619 252.447 23.0052 252.382 23.8484C252.316 26.7025 252.447 29.7511 252.643 32.3457C252.969 35.8484 253.296 38.9619 254.014 42.7241C254.602 45.643 256.169 50.8322 257.41 54.4646C258.912 49.7295 259.499 44.0863 260.218 38.5079C260.805 34.2268 261.197 29.8809 261.393 25.7295C261.589 22.616 261.458 19.6322 261.981 17.7511C262.242 17.1025 261.589 15.8052 262.634 16.4538C263.548 16.4538 263.809 15.2863 264.462 16.2592C265.311 16.843 266.095 17.1025 266.421 17.7511Z" fill="white"/>
<path d="M275.759 16.583C276.738 16.3235 278.24 16.7776 277.587 18.0749C278.501 18.4641 278.567 17.556 279.481 17.7506C280.199 17.8154 280.787 18.7884 281.962 18.4641C282.55 19.0478 282.354 19.6316 282.354 20.5397C283.007 20.6046 283.333 20.8641 283.725 21.0587C283.529 27.4803 283.072 37.0154 283.007 43.3722C282.942 43.7614 283.203 44.0208 283.203 44.3451C282.615 50.4424 281.962 56.9938 281.832 60.1073C281.766 62.5722 281.505 65.6208 281.636 68.2154C281.636 68.5397 281.375 68.6046 281.048 68.9289C281.113 69.4479 281.244 69.9668 281.048 70.2262C280.787 70.1614 280.395 70.2911 280.134 70.0316C279.938 70.6803 278.958 70.2262 278.828 70.9397C278.501 71.0046 278.632 70.5506 278.24 70.5506C278.044 70.7452 278.24 70.9397 278.436 71.0695C278.11 71.0695 277.457 71.0695 277.13 71.4587C276.804 70.81 275.759 71.0695 275.824 70.2262C275.628 70.4857 275.106 70.5506 274.779 70.4857C273.147 66.1397 272.951 60.8857 272.559 56.1506C272.363 52.7127 272.298 49.8587 272.298 46.0965C272.233 43.2424 272.037 39.5451 271.971 36.237C271.906 33.837 271.645 31.5019 271.58 29.2965C271.384 27.5451 271.645 22.7451 271.318 21.1884C271.253 20.6695 270.665 20.0208 270.927 19.3073C271.253 19.2424 271.449 19.3722 271.776 19.3722C271.841 18.7884 271.188 18.6587 271.384 18.2046C271.645 17.8154 272.429 17.8803 273.147 17.8154C273.408 17.4262 272.298 17.4911 272.102 17.1668C272.755 17.1019 273.604 16.9073 273.996 17.1019C274.061 16.583 273.016 16.9073 273.082 16.5181C273.669 16.1289 274.975 16.2587 275.693 16.3235C275.759 16.0641 275.693 16.5181 275.759 16.583ZM273.735 57.7073C274.388 57.6424 273.539 56.4749 274.061 56.3451C274.257 56.3451 274.714 61.21 274.388 60.8857C274.583 62.4424 274.714 64.7127 275.236 66.5938C275.563 66.2695 275.498 65.7506 275.432 65.3614C275.367 62.0533 274.192 54.983 274.583 54.983C274.779 54.983 274.649 55.6316 274.845 55.6965C275.171 55.6965 274.583 52.1938 274.583 50.637C274.779 50.4424 275.106 52.5181 275.236 52.4533C275.498 52.4533 275.236 48.1722 274.91 47.1992C274.714 47.5884 275.106 50.3776 274.845 50.3776C274.518 48.8208 274.192 46.5506 274.518 45.1884C274.779 45.1884 274.583 46.1614 274.91 46.356C275.171 45.5127 274.91 44.2154 274.649 43.437C274.257 43.6316 274.91 44.7992 274.583 44.7343C273.408 41.2965 273.93 33.4478 273.343 33.7722C273.408 39.2857 273.277 57.7073 273.735 57.7073ZM274.649 42.7235C274.649 42.3992 274.975 40.583 274.453 40.5181C274.257 40.7776 274.192 42.01 274.649 42.7235ZM277.326 61.9884C277.391 61.3397 277.391 60.1722 276.999 59.783C276.999 60.3668 277.065 61.4046 277.326 61.9884Z" fill="white"/>
<path d="M303.968 17.4916C314.612 16.2592 324.08 15.7402 330.153 21.7727C335.834 27.4159 334.724 35.524 334.463 39.7402C334.267 43.3727 332.569 52.9078 328.325 59.0051C325.451 63.1565 322.382 66.9835 317.42 69.2538C314.612 70.6159 310.302 71.3943 310.106 71.3294C309.845 71.07 310.433 71.0051 310.433 70.7456C310.367 70.551 308.865 71.1348 308.67 71.0051C308.474 70.8105 309.257 70.7456 309.192 70.4862C308.604 70.1619 308.278 70.2267 307.886 69.6429C307.625 69.7078 307.69 70.2916 307.298 69.9673C307.037 70.2267 307.821 70.8754 307.298 70.8754C306.711 70.9402 305.992 71.2646 305.535 70.6159C305.274 70.097 305.6 69.5781 305.535 69.0592C305.47 68.5402 305.013 68.0862 304.947 67.5673C304.556 65.297 304.621 62.5727 304.686 60.1078C304.882 56.0213 305.339 51.7402 305.339 47.3294C305.339 37.5997 305.274 30.4646 304.425 23.1348C304.099 22.551 303.25 21.9673 303.25 21.2537C303.054 20.9294 303.25 20.8646 303.315 20.67C302.662 20.3456 302.466 20.0862 302.466 19.8267C302.466 19.4375 303.054 19.5024 303.184 19.2429C302.793 18.3348 301.552 18.27 302.597 16.9727C303.184 17.297 303.641 16.9727 303.968 17.4916ZM318.203 34.8754C318.203 45.3835 318.464 52.5186 317.681 61.0159C318.203 60.7565 318.726 60.3024 319.052 59.7186C320.685 57.124 322.578 52.1943 323.231 47.9781C325.125 36.5619 324.603 25.6646 317.811 24.6916C317.877 27.6754 318.203 31.8267 318.203 34.8754Z" fill="white"/>
<path d="M352.355 19.3724C352.55 19.6319 352.355 20.021 352.616 20.4102C353.008 21.3183 353.856 21.7075 353.987 22.6805C354.509 25.1454 353.399 40.3237 353.399 44.6697C353.203 51.74 353.073 61.34 354.118 67.4373C354.705 69.5778 352.485 68.1508 351.898 69.8373C351.506 71.1346 345.106 71.7183 343.474 70.0967C339.948 65.4264 340.927 56.6697 340.405 49.5346C340.209 47.7832 339.687 40.3237 340.34 28.1292C340.601 24.3021 341.254 21.1886 340.666 19.0481C340.47 18.5292 340.274 18.4643 340.144 18.14C340.666 17.2319 341.646 17.167 343.017 17.167C350.265 17.2967 351.963 19.0481 352.355 19.3724Z" fill="white"/>
<path d="M384.482 17.6211C384.809 18.2048 385.07 18.7886 385.396 19.2427C385.723 19.7616 386.245 20.1508 386.572 20.6048C387.29 21.8373 388.139 23.7184 388.726 25.2751C390.555 30.2697 391.665 35.5238 391.861 42.3994C391.926 46.7454 391.469 51.74 390.685 55.4373C390.032 58.8751 388.726 62.3778 387.029 65.167C386.702 65.8156 385.984 66.3994 385.461 66.9832C384.286 68.2805 383.633 68.9292 382.588 70.1616C379.715 70.7454 381.413 71.4589 377.56 71.4589C375.732 71.2643 371.945 70.7454 372.989 70.2265C372.336 69.5778 371.618 69.2535 371.03 68.6697C370.704 68.9292 371.422 69.2535 371.292 69.3832C371.096 69.5778 370.769 69.1886 370.639 69.3184C370.377 69.513 371.553 69.967 371.487 70.2913C370.834 70.2265 369.724 69.2535 369.267 68.9292C368.614 68.4102 369.267 69.1886 369.071 69.1886C368.875 69.4481 367.765 68.1508 367.57 68.3454C367.765 69.0589 369.398 69.6427 369.855 70.1616C369.267 70.1616 368.68 69.9021 368.223 69.6427C365.741 67.8913 363.586 65.6211 362.215 63.2211C360.844 61.34 362.476 63.0265 362.411 62.5075C360.191 57.9021 359.081 52.1292 359.277 44.8643C359.342 42.2697 359.603 39.8048 359.995 37.1454C360.517 33.1238 361.823 29.4265 363.325 25.9886C363.913 24.6913 364.958 23.5238 365.806 22.2265C366.655 20.994 367.439 19.6967 368.68 18.9184C368.745 18.6589 368.745 18.3346 368.875 18.0751C370.704 17.167 372.532 18.594 374.165 19.0481C375.536 19.6319 377.038 19.8913 378.017 20.6048C378.54 21.8373 379.911 21.7724 380.76 22.5508C380.956 23.1346 381.348 23.394 381.021 23.9129C381.282 24.6265 381.87 24.8211 382.197 25.4697C381.674 26.4427 380.695 27.0265 379.715 27.8697C377.952 29.4265 376.646 31.6967 375.144 34.0967C372.663 38.6373 371.487 43.7616 372.01 52.0643C372.271 55.567 372.989 57.9021 374.491 60.2373C375.471 61.8589 376.711 62.9616 378.213 63.0265C380.172 63.0913 380.629 61.8589 381.609 61.2102C384.351 57.5129 385.461 53.6859 386.049 50.2481C387.225 42.8535 387.225 35.8481 385.2 29.167C384.351 26.3129 383.111 22.2913 381.674 20.1508L380.303 18.0751C379.78 17.4265 378.932 16.5184 378.932 15.9994C378.866 15.0913 379.911 15.0265 380.695 15.0265C380.956 14.767 380.303 14.4427 380.433 14.3129C381.805 14.0535 383.698 16.5184 384.482 17.6211ZM369.528 68.1508C368.81 67.9562 369.006 68.3454 369.463 68.54C369.92 68.7346 370.769 68.6048 370.181 68.2805C369.528 67.6967 368.876 67.0481 368.027 66.5292C367.57 66.7238 369.006 67.6319 369.528 68.1508Z" fill="white"/>
<path d="M438.484 15.7399C439.007 15.675 439.072 16.5831 439.855 16.3237C439.855 16.9074 440.182 17.1669 440.443 16.9723C441.814 19.2426 442.337 21.7074 442.337 25.1453C442.141 28.3237 442.01 33.5777 442.01 37.275C442.01 41.8804 442.076 47.9128 442.076 52.4534C442.076 62.702 442.076 67.5669 439.66 68.7345C438.615 69.3182 438.419 71.1993 437.701 71.4588C436.656 71.848 435.742 71.1993 435.154 70.5507C433.979 71.0696 433.521 70.4858 432.673 70.0318C432.346 69.7723 431.824 69.6426 431.628 69.448C430.387 68.5399 428.755 65.621 428.102 64.0642C426.861 61.4696 425.816 58.875 424.706 55.7615C423.4 51.8047 420.658 45.8372 419.025 41.2318C418.829 43.7615 419.025 48.3669 419.09 51.2209C419.286 55.3074 419.286 58.1615 419.156 61.2101C418.96 65.1669 419.09 68.1507 416.609 69.9669C415.368 70.875 413.67 71.1993 411.842 70.9399C412.756 69.0588 412.495 65.4264 412.43 62.4426C412.365 59.5885 412.365 56.6047 412.365 53.4912C412.234 46.0318 412.756 43.9561 412.756 36.4318C412.756 32.3453 412.756 28.7777 412.234 25.275C410.406 20.021 409.818 19.1777 410.928 18.3345C411.777 17.6858 413.344 16.8426 415.238 16.7777C418.111 16.5831 419.547 17.1669 421.245 18.5291C424.053 20.6696 426.143 24.9507 427.514 29.2966C428.167 31.2426 428.755 33.7074 429.408 35.5885C430.256 37.8588 434.501 51.4155 435.676 53.9453C435.611 46.4209 435.676 38.9615 436.003 29.6858C436.199 25.0804 435.285 21.5128 436.395 17.8155C436.591 17.102 437.048 16.1939 437.113 15.0912C437.048 14.8318 437.374 15.0264 437.505 14.8966C437.57 14.8318 437.701 14.5074 437.831 14.702C438.419 14.702 438.354 15.3507 438.484 15.7399Z" fill="white"/>
<path d="M464.996 17.4914C465.518 17.8157 465.91 18.14 466.236 18.3995C468.065 19.9563 468.326 23.0049 468.848 26.1184C469.762 30.3995 469.567 35.0698 470.35 39.6752L472.962 55.5022C473.55 58.4211 474.138 62.1184 474.529 64.9076C474.856 66.0752 475.509 67.6968 475.182 68.8644C474.986 69.4482 474.333 69.7725 474.007 70.2265C473.289 70.0319 472.244 69.9671 472.048 70.5509C471.526 70.7455 471.199 70.486 470.677 70.6157C470.35 70.6157 470.611 71.2644 470.285 71.2644C469.044 71.5238 468.391 70.3563 466.955 70.3563C466.563 70.5509 466.367 70.8752 465.779 70.7455C464.277 68.9941 464.147 65.686 463.233 62.1184C461.012 62.1833 457.486 62.1833 455.201 62.1184C454.874 64.3887 454.156 66.2698 453.307 68.0211C452.654 69.2536 452.328 69.6428 451.022 70.4211C449.259 71.3941 448.083 71.1347 446.908 69.9022C446.516 69.3833 446.908 69.059 447.234 68.7346C448.41 67.8265 448.475 64.1941 449.063 61.9238C448.54 61.5347 448.475 61.5995 447.822 61.4049C447.822 61.1455 448.148 61.2103 448.214 61.1455C448.148 60.886 447.234 60.886 447.234 60.6265C447.234 60.4319 447.822 60.4319 447.887 60.3671C447.169 59.9779 446.712 59.8482 446.712 59.3941C447.104 59.3292 447.234 59.1995 447.365 59.1995C447.43 58.8103 446.777 58.6157 447.169 57.8373C448.475 58.3563 448.214 57.3184 449.912 57.4482C452.197 46.5509 453.895 34.8752 456.572 23.9779C456.768 23.1346 457.486 21.5779 457.421 21.059C457.356 20.5401 456.703 20.3455 456.572 19.8914C456.246 18.5941 458.074 17.1022 459.184 16.713C459.576 16.6482 460.098 16.7779 460.686 16.713C461.535 16.713 462.906 16.1292 463.755 16.4536C464.147 16.713 464.604 17.2968 464.996 17.4914ZM456.311 56.9941C458.139 56.9292 461.012 56.9292 462.318 56.6698C461.6 51.6103 460.098 44.6049 459.38 39.5455C458.466 45.1887 456.964 51.4806 456.311 56.9941Z" fill="white"/>
<path d="M487.197 2.57238L493.466 7.63183C496.796 4.84265 497.449 3.48048 501.041 1.08048C501.367 1.01562 501.302 1.01562 501.629 1.08048C502.216 0.4967 504.175 0.756159 504.828 0.36697C505.22 0.431835 505.351 0.691294 505.677 0.885889C505.416 1.21021 505.677 1.85886 505.351 2.05346C505.416 2.24805 505.677 2.44265 505.938 2.37778C500.714 8.86427 498.951 14.5075 496.274 14.8967C495.556 15.1562 494.772 15.1562 494.38 15.6102C487.85 15.6751 485.63 13.1453 481.451 10.0318C477.99 7.5021 479.884 5.49129 478.97 4.12913C478.643 3.48048 479.296 2.57238 479.296 1.66427C480.211 1.33994 482.692 -0.281679 483.671 0.0426455C485.108 0.431835 486.022 1.5994 487.197 2.57238ZM501.237 16.0643C501.955 16.7778 503.392 17.0372 503.783 18.1399C505.285 21.9021 505.351 27.4156 505.612 31.4372C505.612 32.2805 504.436 32.4751 503.849 33.2535C502.543 33.6426 501.563 33.9021 500.714 34.8751C500.127 34.6156 499.996 35.394 499.67 35.5237C499.408 35.5237 499.082 35.0048 499.017 35.4589C497.449 34.8751 496.927 33.5129 496.47 31.1129C496.209 29.8805 496.274 28.3886 496.274 27.2859C496.209 26.2481 496.078 25.2102 496.078 24.4967C494.511 25.4697 493.27 27.6102 492.748 29.1021C492.095 30.9832 492.095 32.7345 493.466 34.9399C496.339 39.5454 499.604 43.3724 502.151 46.9399C504.567 50.2481 508.616 56.7994 505.808 60.0426C505.481 62.8967 504.436 65.1021 502.739 67.1129C501.89 68.1508 500.976 69.3832 499.996 69.967C499.408 70.2913 498.625 70.3562 498.037 70.6805C496.796 71.1994 494.184 71.394 492.617 71.394C489.548 71.4589 487.263 70.7453 485.173 69.4481C483.28 68.2156 481.974 66.594 481.059 63.8697C480.668 62.6372 480.08 61.4048 480.015 60.2372C479.362 56.7994 480.864 54.3345 481.255 51.4156C482.431 50.4426 483.41 52.2589 484.716 51.3508C486.022 51.9994 486.61 53.1021 487.197 55.1129C487.85 56.994 488.503 58.9399 489.352 61.0805C490.267 63.9994 491.834 66.0751 493.466 65.6859C495.752 65.1021 495.948 62.2481 495.752 60.367C495.425 56.9291 492.291 52.0643 489.418 48.4967C482.953 40.6481 479.753 36.0426 479.688 31.0481C479.492 27.8697 480.276 25.4697 482.104 23.0697C483.867 20.8643 486.479 18.3345 487.981 17.5562C489.352 16.8426 492.03 17.8805 493.205 17.8805C493.727 18.7237 494.707 18.9183 495.425 19.3724C495.752 19.6318 495.948 20.3453 496.274 20.6048C496.927 19.9562 496.274 17.4264 496.862 17.167C497.711 16.7778 497.907 15.9345 499.017 15.8048C499.604 15.5453 500.584 16.3237 501.237 16.0643Z" fill="white"/>
<path d="M533.233 17.1669C534.213 17.3615 533.56 18.075 534.082 18.2047C534.343 18.2047 534.67 18.1398 535.062 18.1398C535.78 18.1398 534.213 18.7236 534.539 18.8534C535.388 19.0479 535.845 19.4371 534.801 19.4371C536.041 20.0209 534.735 20.6696 535.388 21.3182C536.955 21.5777 534.735 21.902 534.343 22.2263C533.364 22.875 529.577 23.1993 528.009 23.3939C526.442 23.329 524.614 23.1993 523.047 23.3939C523.765 28.3885 523.765 35.8479 523.569 40.9074C527.03 40.3236 529.838 40.3236 533.233 39.9993C534.148 39.8047 533.429 40.5182 533.56 40.7128C533.952 40.7128 533.952 40.3885 534.474 40.5182C535.454 40.8425 534.409 41.4912 534.996 42.075C535.845 42.4642 534.148 42.9182 535.323 43.3723C536.041 43.8912 534.67 43.8912 534.017 44.0858C533.952 44.475 534.409 44.3452 534.409 44.6696C533.886 45.1885 533.168 45.5777 532.319 45.902C531.274 46.2263 530.36 46.7452 528.14 46.7452C526.573 46.7452 525.006 46.5507 523.438 46.6804C523.177 51.675 523.373 57.1885 523.504 62.7669C525.789 63.0912 528.271 63.0263 530.687 63.1561C532.254 63.3507 533.299 63.9993 534.996 63.7398C536.041 63.2209 535.911 65.0371 535.649 65.6209C536.629 66.1398 536.89 68.5398 535.911 68.5398C534.996 68.6047 536.106 70.0317 535.192 69.5777C533.952 69.6425 533.429 70.4858 531.013 70.4209C524.418 70.1615 516.909 71.9777 512.338 69.448C512.272 68.7344 511.032 68.2804 511.815 67.9561C512.664 67.6966 511.815 66.3993 511.75 65.4912C511.489 63.0912 512.011 60.5615 512.011 58.0966L511.75 36.3669C511.75 32.3452 512.338 27.4155 511.685 23.8479C510.379 23.8479 509.922 23.1993 511.358 22.9398C511.685 22.2912 509.073 21.7723 510.117 21.4479C511.032 21.1885 509.138 20.2155 509.791 19.6317C509.791 19.6317 510.183 19.3074 510.183 19.0479C510.248 18.7885 509.464 18.9831 509.856 18.529C510.183 18.2047 510.248 18.3344 510.705 18.2047C511.032 18.0101 510.64 17.2317 512.076 17.2317C512.925 17.2317 515.276 17.4912 517.104 17.5561C518.606 17.6209 520.761 16.9723 522.459 16.7128C525.789 16.6479 530.034 16.3885 533.233 17.1669ZM517.627 70.0966C517.104 69.902 513.513 68.7344 512.925 69.1236C513.448 69.3182 517.235 70.4858 517.627 70.0966Z" fill="white"/>
<path d="M564.25 17.8159C564.446 18.0105 564.577 18.3348 564.838 18.5294C565.752 19.3727 566.471 19.2429 566.928 20.7348C567.124 21.4484 567.319 22.5511 567.45 23.3294C567.711 24.8213 567.646 26.0538 567.646 27.6105C567.646 29.1673 567.646 29.7511 566.993 30.6592C566.013 31.3727 564.512 33.1889 563.663 32.7348C563.14 32.4105 563.14 33.9673 562.487 33.3186C561.573 33.0592 560.855 36.2375 560.071 34.8754C559.549 34.1619 559.157 33.3835 558.896 32.67C557.982 30.5294 557.002 27.9348 556.937 24.5619C554.455 28.3889 552.497 32.7348 551.386 38.1186C550.995 38.1835 551.191 40.5835 550.538 40.7132C550.799 42.0754 550.342 43.6321 550.342 45.2538C550.146 47.6538 550.733 51.8051 551.256 54.0105C552.235 58.1619 554.129 62.0538 556.806 62.6375C560.594 63.3511 562.814 59.1348 563.728 54.9186C564.054 52.8429 564.054 51.0916 563.989 49.3402C561.377 49.0808 558.569 49.9889 556.872 47.9781C556.806 47.7835 556.61 47.4592 556.872 47.5889C556.219 46.6808 555.304 46.097 555.239 44.4754C559.222 43.8916 563.271 43.2429 567.45 43.8267C567.842 43.8267 568.429 44.5402 568.038 44.7997C566.797 45.4483 569.278 47.2646 567.842 47.6538C567.646 47.9781 567.842 48.0429 567.842 48.3673C567.515 48.4321 567.254 48.7565 566.928 48.9511C567.515 53.9456 566.601 59.8484 565.165 63.2213C563.663 66.9186 560.724 70.4862 557.459 71.524C556.48 71.8484 554.717 71.8483 554.586 71.4592C554.39 71.07 556.48 71.1997 556.806 70.7456C554.978 70.6808 553.149 71.07 551.713 70.4862C551.321 70.2916 551.125 69.9673 550.799 69.9673C550.146 69.9024 549.493 69.9673 548.709 69.9673C548.121 69.9024 548.905 69.5781 548.448 69.5781C547.142 69.1889 544.465 66.3997 543.812 65.2321C541.918 62.3781 538.522 55.5673 539.633 42.3348C539.894 38.897 541.2 32.6051 543.289 28.3889C543.942 27.0267 544.791 25.2105 545.705 23.7835C547.077 21.5132 549.885 17.3619 550.146 17.9456C550.538 18.8538 551.06 16.7132 551.125 17.297C551.191 17.8808 551.125 18.27 551.713 17.8808C552.562 17.297 554.847 19.4375 556.48 20.0213C556.806 20.7348 556.872 21.1889 557.198 21.8375C557.394 20.8646 557.786 20.0862 557.198 19.2429C557.459 19.2429 557.525 19.5024 557.72 19.2429C557.982 18.724 557.655 17.6862 557.655 17.3619C557.72 17.1024 558.178 17.3619 558.308 17.1673C558.373 16.9078 558.243 16.9078 558.243 16.6484C560.463 16.5186 562.683 16.8429 564.25 17.8159Z" fill="white"/>
<path d="M608.85 17.4913C610.613 17.5562 611.462 17.5562 612.898 17.2967C614.139 17.0373 613.421 17.5562 613.551 18.14C613.616 18.4643 613.878 18.7886 613.812 19.0481C613.747 19.3076 614.139 19.567 613.616 19.6967C613.094 19.8913 614.204 20.2157 613.29 20.4103C613.225 20.4103 613.812 20.994 613.486 21.1238C613.159 21.2535 612.572 22.6157 611.723 23.394C610.743 24.3022 608.654 23.9778 605.781 23.913C605.258 29.2967 605.715 39.0265 605.585 46.2913C605.519 55.6968 605.519 64.3238 605.781 68.6049C605.781 70.0968 604.866 69.967 604.213 70.6805C603.691 71.0697 603.038 70.6157 603.365 69.967C603.691 69.2535 602.385 70.3562 602.189 70.6157C601.34 71.3292 600.687 71.5238 600.687 70.94C598.728 70.2913 595.92 71.1346 594.68 69.1886C594.68 67.8265 594.157 64.1292 594.092 62.4427C593.7 53.4913 593.896 48.2373 593.896 39.4805C593.896 34.6157 594.484 28.5832 594.941 23.913C593.439 23.6535 591.741 24.2373 590.174 24.1724C585.277 23.913 587.236 22.5508 586.321 22.2265C585.799 22.2265 586.713 21.8373 586.06 21.2535C585.538 20.9292 586.321 20.994 586.583 20.994C586.517 20.6697 586.06 20.1508 586.191 20.0859C586.452 19.7616 586.713 20.2805 586.779 20.0859C586.779 19.8265 586.256 19.3724 586.387 19.1778C586.452 18.9184 586.648 19.1778 586.779 19.1778C586.779 18.7886 586.387 18.4643 586.583 18.2697C589.913 18.2049 592.329 17.2319 596.182 16.9076C600.165 16.5832 602.32 17.2967 608.85 17.4913Z" fill="white"/>
<path d="M642.936 18.983C643.132 20.7344 644.568 20.929 645.025 22.356C645.221 23.0046 644.829 24.6263 644.633 25.7938C644.046 28.8425 643.98 32.0209 643.98 35.0046C643.915 38.1182 645.613 53.7506 641.891 61.5344C640.846 63.6101 639.148 65.3614 637.777 66.7884C635.557 68.8641 635.035 70.4209 631.182 71.0695C630.529 71.1344 630.006 71.4587 629.353 71.5884C627.982 71.8479 625.044 71.6533 623.411 70.9398C623.15 70.7452 622.758 70.4209 622.366 70.2263C619.297 68.3452 617.012 65.3614 616.163 62.0533C615.902 60.8857 615.902 59.4587 615.902 58.2911C615.902 57.7074 616.228 57.3182 616.424 56.7344C616.424 56.4101 616.359 56.0209 616.424 55.5668C616.62 54.0749 617.338 52.5182 618.644 51.8046C620.603 52.9722 623.672 53.1668 625.566 54.6587C626.154 55.1776 627.133 56.2155 627.329 56.7992C627.59 57.5128 627.133 59.0046 627.003 59.9776C626.676 63.2857 627.395 66.5938 628.505 66.5938C630.268 66.5938 630.921 62.7668 631.574 59.783C633.206 51.4803 631.312 43.956 631.247 37.1452C631.051 32.9938 631.835 27.4803 632.292 22.8101C629.549 22.8101 627.329 22.5506 625.501 22.5506C622.889 22.5506 618.906 22.81 620.212 21.5128C620.473 21.2533 619.624 21.1884 619.82 20.2803C620.016 19.5668 618.057 19.8911 617.077 19.6965C617.012 17.1019 619.689 17.1668 622.497 17.2965C626.48 17.2965 632.488 17.0371 636.341 16.9073C639.475 16.6479 641.434 17.7506 642.936 18.983Z" fill="white"/>
<path d="M656.387 17.4912C662.917 17.8155 667.423 16.9074 672.451 17.6858C672.777 17.7507 672.19 18.0101 671.929 18.075C672.32 18.9182 673.887 17.7507 674.083 18.4642C674.345 19.6966 672.908 20.4101 673.039 21.2534C673.039 22.4209 665.725 22.5507 662.199 22.875C663.048 27.4804 662.917 33.7074 662.525 38.1182C665.66 38.1831 668.664 37.7291 672.32 37.9236C672.516 38.4426 672.124 38.8318 672.255 39.2858C672.255 39.675 672.647 39.9345 672.647 40.3236C672.843 41.8155 671.406 42.5291 670.492 43.3723C670.1 43.5669 670.231 43.048 669.97 43.3074C667.815 44.2804 664.942 43.8912 662.068 43.8263C661.742 46.4209 662.068 50.702 662.33 53.6858C662.003 56.7345 662.33 60.6263 662.134 63.8696C663.505 64.1939 665.007 64.1939 666.574 64.3885C668.859 64.648 670.884 64.9074 673.43 64.7777C674.932 64.7777 673.626 67.3074 673.365 68.7345C671.21 70.8101 665.529 71.1345 661.089 71.2642C658.803 71.3291 655.473 71.1993 653.645 70.4209C653.318 70.2263 654.037 70.3561 653.579 69.7074C652.731 68.7345 652.535 67.6318 652.208 67.5669C651.816 68.0858 653.384 69.8372 653.188 70.1615C652.012 69.902 651.686 68.7993 651.229 67.8912C650.902 64.1939 651.098 59.7182 651.098 55.7615C651.098 53.8804 651.098 51.3507 651.033 49.0155C651.033 44.2804 650.968 24.8858 650.51 22.5507C650.315 21.3831 650.119 20.0858 649.139 19.6318C649.466 19.4372 649.857 19.3074 650.184 19.048C649.792 18.4642 649.139 18.2047 649.139 17.2318C651.359 16.8426 654.559 16.5831 656.387 17.4912Z" fill="white"/>
<path d="M695.893 17.8159C705.166 20.0213 711.892 26.6375 710.52 39.2213C710.194 42.3997 709.541 45.4483 708.627 48.0429C708.039 49.6645 705.819 55.3078 704.317 57.2537C700.921 61.8591 697.33 64.5186 694.979 66.2051C693.934 67.0483 691.845 68.3456 690.669 68.9294C689.037 69.7727 687.6 70.551 685.38 71.0051C683.748 71.1997 682.246 71.5889 680.417 71.3294C680.091 70.097 679.373 69.124 679.111 67.8267C678.393 64.3889 678.785 60.3024 678.85 56.5402C678.85 52.7132 679.111 48.8213 679.111 45.124C679.177 37.2754 678.197 29.1673 679.177 22.1618C679.438 21.4483 678.524 20.9943 679.177 20.3456C679.699 19.9564 679.438 19.697 678.85 19.4375C679.177 19.0483 678.458 18.2051 678.85 17.5564C680.091 18.0754 680.679 17.751 681.462 17.5564C682.833 17.2321 685.837 17.1673 689.233 17.0375C691.518 16.9727 693.934 17.297 695.893 17.8159ZM691.714 35.7835C692.302 44.4754 692.237 54.2051 691.649 61.9889C692.498 61.4051 693.02 60.4321 693.608 59.524C695.436 56.7348 696.742 54.0105 697.656 50.4429C698.375 47.9781 698.962 45.3835 699.289 42.4645C700.138 35.07 699.681 28.3889 695.632 24.951C694.653 24.1078 693.412 23.4591 691.584 23.6537C691.584 26.5727 691.388 31.6321 691.714 35.7835Z" fill="white"/>
<path d="M742.452 15.7397C742.974 15.6749 743.039 16.583 743.823 16.3235C743.823 16.9073 744.15 17.1667 744.411 16.9721C745.782 19.2424 746.304 21.7073 746.304 25.1451C746.109 28.3235 745.978 33.5776 745.978 37.2749C745.978 41.8803 746.043 47.9127 746.043 52.4532C746.043 62.7019 746.043 67.5667 743.627 68.7343C742.582 69.3181 742.386 71.1992 741.668 71.4586C740.623 71.8478 739.709 71.1992 739.122 70.5505C737.946 71.0694 737.489 70.4857 736.64 70.0316C736.314 69.7721 735.791 69.6424 735.595 69.4478C734.355 68.5397 732.722 65.6208 732.069 64.064C730.829 61.4695 729.784 58.8749 728.674 55.7613C727.368 51.8046 724.625 45.837 722.993 41.2316C722.797 43.7613 722.993 48.3667 723.058 51.2208C723.254 55.3073 723.254 58.1613 723.123 61.21C722.927 65.1667 723.058 68.1505 720.577 69.9667C719.336 70.8749 717.638 71.1992 715.81 70.9397C716.724 69.0586 716.463 65.4262 716.397 62.4424C716.332 59.5884 716.332 56.6046 716.332 53.4911C716.267 45.837 716.724 43.8262 716.724 36.3019C716.724 32.2154 716.724 28.6478 716.201 25.1451C714.373 19.8911 713.785 19.0478 714.895 18.2046C715.744 17.5559 717.312 16.7127 719.205 16.6478C722.078 16.4532 723.515 17.037 725.213 18.3992C728.021 20.5397 730.11 24.8208 731.481 29.1667C732.134 31.1127 732.722 33.5776 733.375 35.4586C734.224 37.7289 738.468 51.2857 739.644 53.8154C739.579 46.2911 739.644 38.8316 739.97 29.5559C740.166 24.9505 739.252 21.383 740.362 17.6857C740.558 16.9721 741.015 16.064 741.081 14.9613C741.015 14.7019 741.342 14.8965 741.472 14.7667C741.538 14.7019 741.668 14.3776 741.799 14.5721C742.386 14.7019 742.256 15.3505 742.452 15.7397Z" fill="white"/>
<path d="M769.485 18.789C770.138 20.0863 770.726 21.5781 771.379 23.07C771.901 24.5619 772.424 25.9241 772.75 27.4809C773.273 29.3619 773.338 31.243 773.664 33.3836C774.252 38.1187 774.905 42.789 775.623 47.9781C775.819 49.016 776.211 50.1836 776.472 51.3511C776.799 53.2971 776.995 55.4376 777.517 57.5133C778.235 61.2754 780.064 65.6214 779.803 69.2538C779.28 69.5782 778.823 69.8376 778.758 70.4214C777.517 70.4863 776.668 71.2646 776.538 71.7836C775.493 71.7187 774.775 70.9403 773.926 70.7457C773.665 70.8106 774.122 71.1349 773.86 71.3295C773.207 70.9403 772.228 70.4863 771.64 70.2917C771.379 70.5511 771.444 70.8106 770.987 70.8106C770.595 70.5511 770.791 70.2917 770.4 69.9673C770.138 69.4484 769.551 69.3187 769.224 68.9295C768.637 67.7619 768.702 64.9727 768.375 63.7403C764.914 63.6754 761.127 63.3511 757.405 63.1565C757.144 64.7133 756.883 66.8538 756.23 68.4754C755.838 69.3836 755.381 70.0971 754.401 70.6809C752.834 71.589 751.006 71.7187 750.222 71.5241C749.83 71.4592 750.483 71.1349 750.418 70.8106C750.353 70.4214 749.896 70.7457 749.896 70.2917C751.071 69.5782 752.312 64.4538 752.834 61.9241C756.164 47.1998 757.144 36.8214 759.429 25.6646C759.691 24.6268 760.278 23.5241 760.278 22.5511C760.474 21.189 760.017 19.8268 760.801 18.789C761.127 18.2052 763.021 16.9079 763.739 16.843C764.457 16.5836 766.351 16.3241 767.265 16.6484C767.788 16.7133 769.29 18.27 769.485 18.789ZM758.711 57.5133C761.192 57.189 763.674 57.1241 766.482 57.1241C765.176 49.9241 763.543 39.1565 762.76 36.4971C761.192 43.1133 760.148 50.7025 758.711 57.5133Z" fill="white"/>
<path d="M798.609 62.5726C799.458 65.0374 798.805 65.6212 797.042 67.1131C796.976 68.2807 797.564 67.9564 797.891 68.2807C798.805 69.1888 795.344 71.1996 793.711 71.5888C791.948 72.7564 789.598 71.5239 788.945 70.551C788.683 70.7456 788.096 71.2645 787.965 70.8753C787.769 70.551 787.312 70.3564 786.724 70.2915C786.79 69.7077 786.202 69.4483 786.006 68.9293C785.745 68.0861 785.941 66.1401 785.941 65.1023C786.006 64.0645 786.267 60.1726 787.573 60.1726C791.818 60.0429 797.303 58.9401 798.609 62.5726ZM796.258 19.0483C796.65 19.4374 798.152 20.7996 798.478 21.3185C799.001 22.1618 798.805 22.8104 798.805 23.5888C798.805 23.8483 799.001 24.1077 799.066 24.3023C799.131 26.0537 798.674 27.7401 798.544 29.8158C798.544 33.5131 798.805 37.5347 798.739 41.232C798.674 44.2807 799.001 47.1996 798.935 50.3131C798.935 51.5456 799.197 53.6212 798.609 54.3347C798.282 54.6591 797.434 54.8537 797.303 55.0483C796.976 54.9834 796.715 54.8537 796.454 54.8537C796.128 54.9185 796.128 55.1131 795.801 55.178C794.299 55.1131 792.34 56.151 791.818 56.0861C791.753 56.0861 791.622 55.8266 791.426 55.8266C791.1 55.8266 790.512 55.7618 790.381 55.178C789.728 55.3726 789.206 56.5401 788.488 56.4753C787.965 55.9564 787.9 55.3077 787.247 54.9185C786.333 51.0915 785.876 44.9293 786.006 41.3618C785.941 33.7077 786.529 26.4428 786.659 18.9185C786.463 18.5293 786.333 18.3996 786.137 18.0104C786.137 17.6861 786.333 17.4915 786.463 17.3618C786.267 17.0374 785.941 17.1023 785.876 16.7131C787.247 16.9077 787.835 15.8699 789.206 16.0645C791.426 16.3888 794.691 17.8807 796.258 19.0483Z" fill="white"/>
</svg>
