<svg width="17" height="19" viewBox="0 0 17 19" fill="none" xmlns="http://www.w3.org/2000/svg">
<path d="M5.04685 4.74999C5.29266 4.74999 5.51532 4.65024 5.67681 4.48875L7.12497 3.04059V12.7656C7.12497 13.2573 7.52336 13.6563 8.01559 13.6563C8.50782 13.6563 8.90622 13.2573 8.90622 12.7656V3.04059L10.355 4.48875C10.5159 4.65026 10.7385 4.74999 10.9843 4.74999C11.4766 4.74999 11.875 4.35099 11.875 3.85936C11.875 3.61355 11.7752 3.39089 11.6143 3.2294L8.6456 0.260665C8.48409 0.0997499 8.26143 0 8.01562 0C7.76981 0 7.54715 0.0997499 7.38624 0.261241L4.4175 3.23001C4.25598 3.39092 4.15623 3.61358 4.15623 3.85936C4.15623 4.35099 4.55465 4.74999 5.04685 4.74999ZM14.8437 5.9375H11.5781C11.0859 5.9375 10.6875 6.3365 10.6875 6.82813C10.6875 7.31975 11.0859 7.71875 11.5781 7.71875H14.25V17.2188H1.78125V7.71875H4.45312C4.94535 7.71875 5.34375 7.31975 5.34375 6.82813C5.34375 6.3365 4.94535 5.9375 4.45312 5.9375H1.18749C0.532593 5.9375 0 6.47067 0 7.12499V17.8125C0 18.4668 0.532593 19 1.18749 19H14.8437C15.4986 19 16.0312 18.4668 16.0312 17.8125V7.12499C16.0312 6.47067 15.4986 5.9375 14.8437 5.9375Z" fill="#00386C"/>
</svg>
