<svg width="8" height="10" viewBox="0 0 8 10" fill="none" xmlns="http://www.w3.org/2000/svg">
<path d="M3.65625 0.388672C3.62109 0.283203 3.55078 0.212891 3.42773 0.160156C3.28711 0.125 3.16406 0.125 3.02344 0.160156C2.88281 0.212891 2.8125 0.300781 2.8125 0.40625V2.88477C2.79492 2.91992 2.74219 2.9375 2.67188 2.9375C2.58398 2.9375 2.53125 2.9375 2.53125 2.90234L2.39062 0.40625C2.35547 0.300781 2.28516 0.212891 2.16211 0.160156C2.02148 0.125 1.89844 0.125 1.77539 0.160156C1.63477 0.212891 1.56445 0.300781 1.54688 0.40625L1.40625 2.90234C1.38867 2.9375 1.33594 2.9375 1.26562 2.9375C1.17773 2.9375 1.125 2.91992 1.125 2.88477V0.40625C1.10742 0.300781 1.03711 0.212891 0.896484 0.160156C0.755859 0.125 0.632812 0.125 0.509766 0.160156C0.369141 0.212891 0.298828 0.283203 0.28125 0.388672C0.0878906 1.51367 0 2.26953 0 2.65625C0 3.11328 0.105469 3.5 0.316406 3.81641C0.527344 4.13281 0.826172 4.36133 1.21289 4.50195L0.984375 8.68555C0.966797 8.80859 1.00195 8.91406 1.08984 9.00195C1.17773 9.08984 1.2832 9.125 1.40625 9.125H2.53125C2.63672 9.125 2.74219 9.08984 2.83008 9.00195C2.91797 8.91406 2.95312 8.80859 2.95312 8.68555L2.72461 4.50195C3.09375 4.36133 3.39258 4.13281 3.60352 3.81641C3.81445 3.5 3.9375 3.11328 3.9375 2.65625C3.9375 2.26953 3.83203 1.51367 3.65625 0.388672ZM5.74805 5.41602C5.09766 4.92383 4.71094 4.34375 4.57031 3.67578C4.42969 3.11328 4.5 2.55078 4.74609 1.9707C4.95703 1.44336 5.27344 1.00391 5.69531 0.652344C6.11719 0.300781 6.50391 0.125 6.89062 0.125C6.99609 0.125 7.10156 0.177734 7.18945 0.248047C7.25977 0.335938 7.3125 0.441406 7.3125 0.546875V8.70312C7.3125 8.82617 7.25977 8.93164 7.18945 9.00195C7.10156 9.08984 6.99609 9.125 6.89062 9.125H5.90625C5.76562 9.125 5.66016 9.08984 5.58984 8.98438C5.50195 8.89648 5.4668 8.79102 5.48438 8.66797L5.74805 5.41602Z" fill="white"/>
</svg>
