<svg width="86" height="61" viewBox="0 0 86 61" fill="none" xmlns="http://www.w3.org/2000/svg">
<path d="M43.3629 1.61133C27.6738 1.61133 14.8682 14.417 14.8682 30.106C14.8682 45.7951 27.6738 58.5159 43.3629 58.5159C59.0519 58.5159 71.8576 45.7951 71.8576 30.106C71.8576 14.3322 59.0519 1.61133 43.3629 1.61133ZM43.3629 55.1237C29.5396 55.1237 18.2604 43.8446 18.2604 30.0212C18.2604 16.1979 29.5396 4.91875 43.3629 4.91875C57.1862 5.00356 68.4654 16.1979 68.4654 30.106C68.4654 43.9294 57.1862 55.1237 43.3629 55.1237Z" fill="#00386C"/>
<path d="M43.3628 11.1094C32.9317 11.1094 24.4512 19.5899 24.4512 30.021C24.4512 40.4522 32.9317 48.9327 43.3628 48.9327C53.7939 48.9327 62.2745 40.4522 62.2745 30.021C62.2745 19.5899 53.7939 11.1094 43.3628 11.1094ZM43.3628 45.6253C34.7975 45.6253 27.8434 38.6712 27.8434 30.1059C27.8434 21.5405 34.7975 14.5864 43.3628 14.5864C51.9282 14.5864 58.8823 21.5405 58.8823 30.1059C58.8823 38.6712 51.9282 45.6253 43.3628 45.6253Z" fill="#00386C"/>
<path d="M15.1229 11.1095V1.69611C15.1229 0.763251 14.3596 0 13.4268 0C12.4939 0 11.7306 0.763251 11.7306 1.69611V11.1095C11.7306 12.6361 10.8826 13.9081 9.52569 14.5866V1.69611C9.52569 0.763251 8.76244 0 7.82958 0C6.89672 0 6.13346 0.763251 6.13346 1.69611V14.5866C4.86138 13.9081 4.01332 12.6361 4.01332 11.1095V1.69611C4.01332 0.763251 3.25007 0 2.31721 0C1.38435 0 0.621094 0.763251 0.621094 1.69611V11.1095C0.621094 14.5018 2.99565 17.3852 6.21827 18.1484V26.205V58.4311C6.21827 59.364 6.98152 60.1273 7.91438 60.1273C8.84725 60.1273 9.6105 59.364 9.6105 58.4311V26.205V18.1484C12.7483 17.3852 15.1229 14.5018 15.1229 11.1095Z" fill="#00386C"/>
<path d="M85.4267 10.1765C85.4267 4.66411 82.3737 0.423828 78.4726 0.423828C74.5716 0.423828 71.5186 4.74892 71.5186 10.1765C71.5186 14.8408 73.7235 18.6571 76.7765 19.6747V25.7807V58.0069C76.7765 58.9398 77.5398 59.703 78.4726 59.703C79.4055 59.703 80.1687 58.9398 80.1687 58.0069V25.7807V19.6747C83.2217 18.6571 85.4267 14.8408 85.4267 10.1765ZM78.4726 16.6217C76.7765 16.6217 74.9108 13.9927 74.9108 10.2613C74.9108 6.52984 76.7765 3.90086 78.4726 3.90086C80.1687 3.90086 82.0345 6.52984 82.0345 10.2613C82.0345 13.9927 80.1687 16.6217 78.4726 16.6217Z" fill="#00386C"/>
</svg>
