<svg width="46" height="46" viewBox="0 0 46 46" fill="none" xmlns="http://www.w3.org/2000/svg">
<circle cx="23" cy="23" r="23" fill="#00386C"/>
<path d="M25.4609 34H20.5098V18.1504H25.4609V34ZM20.2168 14.0635C20.2168 13.3604 20.4707 12.7842 20.9785 12.335C21.4863 11.8857 22.1455 11.6611 22.9561 11.6611C23.7666 11.6611 24.4258 11.8857 24.9336 12.335C25.4414 12.7842 25.6953 13.3604 25.6953 14.0635C25.6953 14.7666 25.4414 15.3428 24.9336 15.792C24.4258 16.2412 23.7666 16.4658 22.9561 16.4658C22.1455 16.4658 21.4863 16.2412 20.9785 15.792C20.4707 15.3428 20.2168 14.7666 20.2168 14.0635Z" fill="white"/>
</svg>
