<svg xmlns="http://www.w3.org/2000/svg" width="12" height="12" fill="none" viewBox="0 0 11 11"><path fill="#fff" d="M10.768 3.174a3.963 3.963 0 0 0-.252-1.311 2.647 2.647 0 0 0-.622-.957 2.647 2.647 0 0 0-.957-.623 3.963 3.963 0 0 0-1.31-.25C7.05.005 6.866 0 5.4 0 3.933 0 3.75.006 3.174.032a3.963 3.963 0 0 0-1.311.251 2.67 2.67 0 0 0-.957.623 2.66 2.66 0 0 0-.623.957c-.157.42-.242.863-.25 1.31C.005 3.75 0 3.934 0 5.4c0 1.467.006 1.65.032 2.226.01.448.094.892.251 1.311.136.36.349.687.623.957.27.274.596.487.957.623.42.157.863.242 1.31.25.577.027.76.033 2.227.033 1.467 0 1.65-.006 2.226-.033a3.963 3.963 0 0 0 1.311-.25 2.761 2.761 0 0 0 1.58-1.58c.157-.42.242-.863.25-1.31.027-.577.033-.76.033-2.227 0-1.467-.006-1.65-.033-2.226zm-.972 4.408a2.987 2.987 0 0 1-.186 1.003A1.788 1.788 0 0 1 8.585 9.61c-.321.119-.66.182-1.003.186-.57.026-.74.031-2.182.031s-1.613-.005-2.182-.031a2.987 2.987 0 0 1-1.003-.186 1.673 1.673 0 0 1-.62-.404 1.673 1.673 0 0 1-.405-.621 2.987 2.987 0 0 1-.186-1.003C.978 7.012.973 6.842.973 5.4s.005-1.613.031-2.182a2.99 2.99 0 0 1 .186-1.003c.087-.234.225-.446.404-.62.175-.18.387-.318.621-.405.321-.119.66-.182 1.003-.186.57-.026.74-.031 2.182-.031s1.613.005 2.182.031a2.99 2.99 0 0 1 1.003.186c.234.087.446.225.62.404.18.175.318.387.405.621.119.321.182.66.186 1.003.026.57.031.74.031 2.182s-.005 1.613-.031 2.182zM5.4 2.627a2.773 2.773 0 1 0 0 5.546 2.773 2.773 0 0 0 0-5.546zm0 4.573a1.8 1.8 0 1 1 0-3.6 1.8 1.8 0 0 1 0 3.6zm3.53-4.683a.648.648 0 1 1-1.295 0 .648.648 0 0 1 1.296 0z"/></svg>