<svg width="56" height="77" viewBox="0 0 56 77" fill="none" xmlns="http://www.w3.org/2000/svg">
<g clip-path="url(#clip0)">
<path fill-rule="evenodd" clip-rule="evenodd" d="M50 0H6.3C2.8 0.1 0 2.9 0 6.4V70.3C0 73.8 2.8 76.6 6.2 76.7H55.6V73.7H6.5C6.3 73.7 6.1 73.7 5.9 73.6C5.8 73.6 5.7 73.6 5.7 73.6C4.1 73.2 3 71.9 3 70.3C3 69.3 3.5 68.3 4.3 67.6C5 67 6 66.9 6.9 66.9H55.6V65.5V50.6H50V63.9H5.6C4.7 64 3.8 64.4 3 64.9V11.8C4 12.4 5.2 12.8 6.4 12.8C9.9 12.8 12.8 9.9 12.8 6.4C12.8 5.1 12.4 4 11.8 3H50V14.9H55.6V3V0H50ZM9.8 6.4C9.8 8.3 8.3 9.8 6.4 9.8C4.5 9.8 3 8.3 3 6.4C3 4.5 4.5 3 6.4 3C8.3 3 9.8 4.5 9.8 6.4Z" fill="#003869"/>
<path d="M55.6 16.8999H50V31.7999H55.6V16.8999Z" fill="#003869"/>
<path d="M55.6 33.7H50V48.5999H55.6V33.7Z" fill="#003869"/>
<path fill-rule="evenodd" clip-rule="evenodd" d="M11.3999 34.9C11.3999 43.6 18.3999 50.5999 27.0999 50.5999C35.7999 50.5999 42.7999 43.6 42.7999 34.9C42.7999 26.2 35.7999 19.2 27.0999 19.2C18.4999 19.2 11.3999 26.2 11.3999 34.9ZM32.6999 46.2999C30.9999 47.0999 29.0999 47.5999 27.0999 47.5999C25.0999 47.5999 23.1999 47.0999 21.4999 46.2999V44.9C21.4999 41.8 23.9999 39.2999 27.0999 39.2999C30.1999 39.2999 32.6999 41.8 32.6999 44.9V46.2999ZM39.7999 34.9C39.7999 38.6 38.1999 41.9 35.6999 44.2C35.3999 39.7 31.6999 36.2 27.0999 36.2C22.4999 36.2 18.7999 39.7 18.4999 44.2C15.9999 41.9 14.3999 38.6 14.3999 34.9C14.3999 27.9 20.0999 22.2 27.0999 22.2C34.0999 22.2 39.7999 27.9 39.7999 34.9Z" fill="#003869"/>
<path fill-rule="evenodd" clip-rule="evenodd" d="M22.7002 30.6C22.7002 33 24.7002 35 27.1002 35C29.5002 35 31.5002 33 31.5002 30.6C31.5002 28.2 29.5002 26.2 27.1002 26.2C24.7002 26.2 22.7002 28.2 22.7002 30.6ZM28.5002 30.6C28.5002 31.4 27.9002 32 27.1002 32C26.3002 32 25.7002 31.4 25.7002 30.6C25.7002 29.8 26.3002 29.2 27.1002 29.2C27.9002 29.2 28.5002 29.8 28.5002 30.6Z" fill="#003869"/>
<path fill-rule="evenodd" clip-rule="evenodd" d="M54.0998 68.8999H6.7998C5.9998 68.8999 5.2998 69.5999 5.2998 70.3999C5.2998 71.1999 5.9998 71.8999 6.7998 71.8999H54.1998C54.9998 71.8999 55.6998 71.1999 55.6998 70.3999C55.5998 69.4999 54.9998 68.8999 54.0998 68.8999Z" fill="#003869"/>
</g>
<defs>
<clipPath id="clip0">
<rect width="55.6" height="76.7" fill="white"/>
</clipPath>
</defs>
</svg>
