<svg width="77" height="58" viewBox="0 0 77 58" fill="none" xmlns="http://www.w3.org/2000/svg">
<mask id="path-1-inside-1" fill="white">
<path fill-rule="evenodd" clip-rule="evenodd" d="M26 22H16V28V34.2222V58H60V34.2222V28V22H50V28H44V22H32V28H26V22Z"/>
</mask>
<path d="M16 22V19H13V22H16ZM26 22H29V19H26V22ZM16 58H13V61H16V58ZM60 58V61H63V58H60ZM60 22H63V19H60V22ZM50 22V19H47V22H50ZM50 28V31H53V28H50ZM44 28H41V31H44V28ZM44 22H47V19H44V22ZM32 22V19H29V22H32ZM32 28V31H35V28H32ZM26 28H23V31H26V28ZM16 25H26V19H16V25ZM19 28V22H13V28H19ZM19 34.2222V28H13V34.2222H19ZM19 58V34.2222H13V58H19ZM60 55H16V61H60V55ZM57 34.2222V58H63V34.2222H57ZM57 28V34.2222H63V28H57ZM57 22V28H63V22H57ZM50 25H60V19H50V25ZM53 28V22H47V28H53ZM44 31H50V25H44V31ZM41 22V28H47V22H41ZM32 25H44V19H32V25ZM35 28V22H29V28H35ZM26 31H32V25H26V31ZM23 22V28H29V22H23Z" fill="#003869" mask="url(#path-1-inside-1)"/>
<rect x="4.5" y="10.5" width="13" height="46" stroke="#003869" stroke-width="3"/>
<path d="M1.5 1.5H21.5V6.79374L18.2762 10.5H4.72385L1.5 6.79374V1.5Z" stroke="#003869" stroke-width="3"/>
<path d="M9 19.0157C9 17.9025 9.90246 17 11.0157 17C12.129 17 13.0314 17.9025 13.0314 19.0157V25.0628H9V19.0157Z" fill="#003869"/>
<rect x="58.5" y="10.5" width="13" height="46" stroke="#003869" stroke-width="3"/>
<path d="M55.5 1.5H75.5V6.79374L72.2762 10.5H58.7238L55.5 6.79374V1.5Z" stroke="#003869" stroke-width="3"/>
<path d="M63 19.0157C63 17.9025 63.9025 17 65.0157 17C66.129 17 67.0314 17.9025 67.0314 19.0157V25.0628H63V19.0157Z" fill="#003869"/>
<path d="M31.4448 44.4946C31.4448 40.8209 34.423 37.8428 38.0967 37.8428C41.7704 37.8428 44.7485 40.8209 44.7485 44.4946V57.9998H31.4448V44.4946Z" fill="#003869"/>
</svg>
