<svg width="67" height="86" viewBox="0 0 67 74" fill="none" xmlns="http://www.w3.org/2000/svg">
<path d="M3.83447 72.4575C6.81743 72.4575 6.81748 69.8772 9.94959 69.8772C13.0817 69.8772 12.9325 72.4575 16.0646 72.4575C19.1967 72.4575 19.1222 69.8772 22.1797 69.8772C25.2372 69.8772 25.2372 72.4575 28.2947 72.4575C31.3523 72.4575 31.2777 69.8772 34.4098 69.8772C37.5419 69.8772 37.4823 72.4575 40.5398 72.4575C43.5973 72.4575 43.5227 69.8772 46.6548 69.8772C49.7869 69.8772 49.7123 72.4575 52.7698 72.4575C55.8274 72.4575 55.8274 69.8772 58.885 69.8772C61.9425 69.8772 61.8679 72.4575 65 72.4575" stroke="#003869" stroke-width="3" stroke-linecap="round" stroke-linejoin="round"/>
<path d="M7.74215 65.9992C7.45877 65.5816 2 51.0845 2 51.0845H62.7181L52.4865 67.5802" stroke="#003869" stroke-width="3" stroke-linecap="round" stroke-linejoin="round"/>
<path d="M27.9219 2L28.7422 45.9389H55.0817L27.9219 2Z" stroke="#003869" stroke-width="3" stroke-linecap="round" stroke-linejoin="round"/>
<path d="M22.4782 11.9631V45.6705H7.59326L22.4782 11.9631Z" stroke="#003869" stroke-width="3" stroke-linecap="round" stroke-linejoin="round"/>
</svg>
