<svg width="82" height="87" viewBox="0 0 82 71" fill="none" xmlns="http://www.w3.org/2000/svg">
<path d="M74.1543 12H7.8458C4.61729 12 2 14.5903 2 17.7857V59.2143C2 62.4097 4.61729 65 7.8458 65H74.1543C77.3828 65 80 62.4097 80 59.2143V17.7857C80 14.5903 77.3828 12 74.1543 12Z" stroke="#003869" stroke-width="3" stroke-linecap="round" stroke-linejoin="round"/>
<path d="M53 12V6.24107C53 5.11627 52.5684 4.03754 51.8003 3.24218C51.0322 2.44683 49.9904 2 48.9041 2H33.0958C32.0095 2 30.9677 2.44683 30.1996 3.24218C29.4315 4.03754 29 5.11627 29 6.24107V12" stroke="#003869" stroke-width="3" stroke-linecap="round" stroke-linejoin="round"/>
<path d="M25 65H13V69H25V65Z" stroke="#003869" stroke-width="3" stroke-linecap="round" stroke-linejoin="round"/>
<path d="M69 65H57V69H69V65Z" stroke="#003869" stroke-width="3" stroke-linecap="round" stroke-linejoin="round"/>
<path d="M62 12V65" stroke="#003869" stroke-width="3" stroke-linecap="round" stroke-linejoin="round"/>
<path d="M20 12V65" stroke="#003869" stroke-width="3" stroke-linecap="round" stroke-linejoin="round"/>
<path d="M48 40.9268L33.6843 46L27 26.5007L31.4284 16L41.3157 21.4133L48 40.9268Z" stroke="#003869" stroke-width="3" stroke-linecap="round" stroke-linejoin="round"/>
<path d="M31 16L29 12" stroke="#003869" stroke-width="3" stroke-linecap="round" stroke-linejoin="round"/>
</svg>
