<svg width="41" height="39" viewBox="0 0 41 39" fill="none" xmlns="http://www.w3.org/2000/svg">
<rect width="41" height="39" fill="#00386C"/>
<rect width="41" height="39" fill="#00386C"/>
<path d="M30.543 14.2422L28.9258 15.8594C28.7148 16.0703 28.5156 16.0703 28.3281 15.8594L24.4258 11.957C24.2148 11.7695 24.2148 11.5703 24.4258 11.3594L26.043 9.74219C26.3711 9.41406 26.7695 9.25 27.2383 9.25C27.707 9.25 28.1055 9.41406 28.4336 9.74219L30.543 11.8516C30.8711 12.1797 31.0352 12.5781 31.0352 13.0469C31.0352 13.5156 30.8711 13.9141 30.543 14.2422ZM23.0195 12.7656C23.2305 12.5547 23.4297 12.5547 23.6172 12.7656L27.5195 16.668C27.7305 16.8555 27.7305 17.0547 27.5195 17.2656L18.3086 26.4766L14.0195 27.25C13.7383 27.2969 13.4922 27.2148 13.2812 27.0039C13.0703 26.793 12.9883 26.5469 13.0352 26.2656L13.8086 21.9766L23.0195 12.7656ZM17.3945 20.5C17.1602 20.7344 17.1602 20.9688 17.3945 21.2031C17.6289 21.4375 17.8633 21.4375 18.0977 21.2031L23.5117 15.7891C23.7461 15.5547 23.7461 15.3203 23.5117 15.0859C23.2773 14.8516 23.043 14.8516 22.8086 15.0859L17.3945 20.5ZM16.1289 24.1562V22.4688H14.8633L14.4414 24.7188L15.5664 25.8438L17.8164 25.4219V24.1562H16.1289Z" fill="white"/>
</svg>
