<svg width="84" height="77" viewBox="0 0 84 77" fill="none" xmlns="http://www.w3.org/2000/svg">
<path fill-rule="evenodd" clip-rule="evenodd" d="M73.8553 33.1919H10.8325V73.9144H73.8553V33.1919ZM7.83252 30.1919V76.9144H76.8553V30.1919H7.83252Z" fill="#003869"/>
<path fill-rule="evenodd" clip-rule="evenodd" d="M46.8977 31.5555C47.7245 31.5043 48.3532 30.7924 48.302 29.9656L46.5793 2.17331C46.5281 1.34647 45.8162 0.717734 44.9894 0.768985C44.1626 0.820235 43.5338 1.53207 43.5851 2.35891L45.3077 30.1512C45.359 30.978 46.0708 31.6068 46.8977 31.5555Z" fill="#003869"/>
<path fill-rule="evenodd" clip-rule="evenodd" d="M51.8459 1.04584C51.0245 1.15334 50.4457 1.90638 50.5532 2.72781L54.1731 30.3867C54.2806 31.2081 55.0336 31.7869 55.855 31.6794C56.6765 31.5719 57.2552 30.8188 57.1477 29.9974L53.5279 2.33851C53.4204 1.51708 52.6673 0.938337 51.8459 1.04584Z" fill="#003869"/>
<path fill-rule="evenodd" clip-rule="evenodd" d="M59.7577 1.05299C58.9402 1.18713 58.3862 1.95859 58.5204 2.77608L63.0589 30.435C63.1931 31.2525 63.9645 31.8064 64.782 31.6723C65.5995 31.5382 66.1535 30.7667 66.0193 29.9492L61.4808 2.2903C61.3466 1.47281 60.5752 0.918844 59.7577 1.05299Z" fill="#003869"/>
<path fill-rule="evenodd" clip-rule="evenodd" d="M66.7238 1.07138C65.9165 1.25748 65.413 2.06274 65.5991 2.87L71.9751 30.5289C72.1612 31.3362 72.9665 31.8397 73.7738 31.6536C74.581 31.4675 75.0846 30.6623 74.8985 29.855L68.5224 2.1961C68.3363 1.38884 67.5311 0.885291 66.7238 1.07138Z" fill="#003869"/>
<path fill-rule="evenodd" clip-rule="evenodd" d="M73.6749 1.09521C72.8807 1.33104 72.4281 2.16601 72.6639 2.96016L80.8775 30.6191C81.1133 31.4132 81.9483 31.8658 82.7425 31.63C83.5366 31.3942 83.9892 30.5592 83.7534 29.765L75.5398 2.10614C75.304 1.31199 74.469 0.859382 73.6749 1.09521Z" fill="#003869"/>
<path fill-rule="evenodd" clip-rule="evenodd" d="M37.8445 31.5555C37.0177 31.5043 36.3889 30.7924 36.4402 29.9656L38.1629 2.17331C38.2141 1.34647 38.9259 0.717734 39.7528 0.768985C40.5796 0.820235 41.2084 1.53207 41.1571 2.35891L39.4345 30.1512C39.3832 30.978 38.6714 31.6068 37.8445 31.5555Z" fill="#003869"/>
<path fill-rule="evenodd" clip-rule="evenodd" d="M32.8963 1.04584C33.7177 1.15334 34.2964 1.90638 34.1889 2.72781L30.5691 30.3867C30.4616 31.2081 29.7086 31.7869 28.8872 31.6794C28.0657 31.5719 27.487 30.8188 27.5945 29.9974L31.2143 2.33851C31.3218 1.51708 32.0749 0.938337 32.8963 1.04584Z" fill="#003869"/>
<path fill-rule="evenodd" clip-rule="evenodd" d="M24.9845 1.05299C25.802 1.18713 26.356 1.95859 26.2218 2.77608L21.6833 30.435C21.5491 31.2525 20.7777 31.8064 19.9602 31.6723C19.1427 31.5382 18.5887 30.7667 18.7229 29.9492L23.2614 2.2903C23.3956 1.47281 24.167 0.918844 24.9845 1.05299Z" fill="#003869"/>
<path fill-rule="evenodd" clip-rule="evenodd" d="M18.0184 1.07138C18.8256 1.25748 19.3292 2.06274 19.1431 2.87L12.767 30.5289C12.581 31.3362 11.7757 31.8397 10.9684 31.6536C10.1612 31.4675 9.65762 30.6623 9.84371 29.855L16.2198 2.1961C16.4059 1.38884 17.2111 0.885291 18.0184 1.07138Z" fill="#003869"/>
<path fill-rule="evenodd" clip-rule="evenodd" d="M11.0673 1.09521C11.8615 1.33104 12.3141 2.16601 12.0782 2.96016L3.86468 30.6191C3.62885 31.4132 2.79389 31.8658 1.99974 31.63C1.20559 31.3942 0.752977 30.5592 0.988807 29.765L9.20237 2.10614C9.4382 1.31199 10.2732 0.859382 11.0673 1.09521Z" fill="#003869"/>
<mask id="mask0" mask-type="alpha" maskUnits="userSpaceOnUse" x="1" y="30" width="12" height="6">
<path d="M12.5801 35.8479L1.00006 35.8479L1.00006 30.0582L12.5801 30.0582L12.5801 35.8479Z" fill="#DB2121"/>
</mask>
<g mask="url(#mask0)">
<path fill-rule="evenodd" clip-rule="evenodd" d="M6.79421 27.8917C4.92698 27.8917 4.00834 29.172 4.00834 30.0578C4.00834 30.9435 4.92698 32.2239 6.79421 32.2239C8.66144 32.2239 9.58008 30.9435 9.58008 30.0578C9.58008 29.172 8.66144 27.8917 6.79421 27.8917ZM6.79421 24.8917C3.59877 24.8917 1.00834 27.2046 1.00834 30.0578C1.00834 32.9109 3.59876 35.2239 6.79421 35.2239C9.98966 35.2239 12.5801 32.9109 12.5801 30.0578C12.5801 27.2046 9.98966 24.8917 6.79421 24.8917Z" fill="#003869"/>
</g>
<mask id="mask1" mask-type="alpha" maskUnits="userSpaceOnUse" x="9" y="30" width="13" height="6">
<path d="M21.4775 35.8479L9.89752 35.8479L9.89752 30.0582L21.4775 30.0582L21.4775 35.8479Z" fill="#DB2121"/>
</mask>
<g mask="url(#mask1)">
<path fill-rule="evenodd" clip-rule="evenodd" d="M15.6917 27.8917C13.8244 27.8917 12.9058 29.172 12.9058 30.0578C12.9058 30.9435 13.8244 32.2239 15.6917 32.2239C17.5589 32.2239 18.4775 30.9435 18.4775 30.0578C18.4775 29.172 17.5589 27.8917 15.6917 27.8917ZM15.6917 24.8917C12.4962 24.8917 9.9058 27.2046 9.9058 30.0578C9.9058 32.9109 12.4962 35.2239 15.6917 35.2239C18.8871 35.2239 21.4775 32.9109 21.4775 30.0578C21.4775 27.2046 18.8871 24.8917 15.6917 24.8917Z" fill="#003869"/>
</g>
<mask id="mask2" mask-type="alpha" maskUnits="userSpaceOnUse" x="18" y="30" width="13" height="6">
<path d="M30.3569 35.8479L18.7769 35.8479L18.7769 30.0582L30.3569 30.0582L30.3569 35.8479Z" fill="#DB2121"/>
</mask>
<g mask="url(#mask2)">
<path fill-rule="evenodd" clip-rule="evenodd" d="M24.5711 27.8917C22.7038 27.8917 21.7852 29.172 21.7852 30.0578C21.7852 30.9435 22.7038 32.2239 24.5711 32.2239C26.4383 32.2239 27.3569 30.9435 27.3569 30.0578C27.3569 29.172 26.4383 27.8917 24.5711 27.8917ZM24.5711 24.8917C21.3756 24.8917 18.7852 27.2046 18.7852 30.0578C18.7852 32.9109 21.3756 35.2239 24.5711 35.2239C27.7665 35.2239 30.3569 32.9109 30.3569 30.0578C30.3569 27.2046 27.7665 24.8917 24.5711 24.8917Z" fill="#003869"/>
</g>
<mask id="mask3" mask-type="alpha" maskUnits="userSpaceOnUse" x="27" y="30" width="13" height="6">
<path d="M39.2549 35.8479L27.6749 35.8479L27.6749 30.0582L39.2549 30.0582L39.2549 35.8479Z" fill="#DB2121"/>
</mask>
<g mask="url(#mask3)">
<path fill-rule="evenodd" clip-rule="evenodd" d="M33.469 27.8917C31.6018 27.8917 30.6831 29.172 30.6831 30.0578C30.6831 30.9435 31.6018 32.2239 33.469 32.2239C35.3362 32.2239 36.2549 30.9435 36.2549 30.0578C36.2549 29.172 35.3362 27.8917 33.469 27.8917ZM33.469 24.8917C30.2736 24.8917 27.6831 27.2046 27.6831 30.0578C27.6831 32.9109 30.2736 35.2239 33.469 35.2239C36.6645 35.2239 39.2549 32.9109 39.2549 30.0578C39.2549 27.2046 36.6645 24.8917 33.469 24.8917Z" fill="#003869"/>
</g>
<mask id="mask4" mask-type="alpha" maskUnits="userSpaceOnUse" x="36" y="30" width="13" height="6">
<path d="M48.1338 35.8479L36.5538 35.8479L36.5538 30.0582L48.1338 30.0582L48.1338 35.8479Z" fill="#DB2121"/>
</mask>
<g mask="url(#mask4)">
<path fill-rule="evenodd" clip-rule="evenodd" d="M42.3479 27.8917C40.4807 27.8917 39.5621 29.172 39.5621 30.0578C39.5621 30.9435 40.4807 32.2239 42.3479 32.2239C44.2152 32.2239 45.1338 30.9435 45.1338 30.0578C45.1338 29.172 44.2152 27.8917 42.3479 27.8917ZM42.3479 24.8917C39.1525 24.8917 36.5621 27.2046 36.5621 30.0578C36.5621 32.9109 39.1525 35.2239 42.3479 35.2239C45.5434 35.2239 48.1338 32.9109 48.1338 30.0578C48.1338 27.2046 45.5434 24.8917 42.3479 24.8917Z" fill="#003869"/>
</g>
<mask id="mask5" mask-type="alpha" maskUnits="userSpaceOnUse" x="45" y="30" width="13" height="6">
<path d="M57.0312 35.8479L45.4512 35.8479L45.4512 30.0582L57.0313 30.0582L57.0312 35.8479Z" fill="#DB2121"/>
</mask>
<g mask="url(#mask5)">
<path fill-rule="evenodd" clip-rule="evenodd" d="M51.2454 27.8917C49.3782 27.8917 48.4595 29.172 48.4595 30.0578C48.4595 30.9435 49.3782 32.2239 51.2454 32.2239C53.1126 32.2239 54.0313 30.9435 54.0313 30.0578C54.0313 29.172 53.1126 27.8917 51.2454 27.8917ZM51.2454 24.8917C48.0499 24.8917 45.4595 27.2046 45.4595 30.0578C45.4595 32.9109 48.0499 35.2239 51.2454 35.2239C54.4408 35.2239 57.0313 32.9109 57.0313 30.0578C57.0313 27.2046 54.4408 24.8917 51.2454 24.8917Z" fill="#003869"/>
</g>
<mask id="mask6" mask-type="alpha" maskUnits="userSpaceOnUse" x="54" y="30" width="12" height="6">
<path d="M65.9106 35.8479L54.3306 35.8479L54.3306 30.0582L65.9106 30.0582L65.9106 35.8479Z" fill="#DB2121"/>
</mask>
<g mask="url(#mask6)">
<path fill-rule="evenodd" clip-rule="evenodd" d="M60.1248 27.8917C58.2575 27.8917 57.3389 29.172 57.3389 30.0578C57.3389 30.9435 58.2575 32.2239 60.1248 32.2239C61.992 32.2239 62.9106 30.9435 62.9106 30.0578C62.9106 29.172 61.992 27.8917 60.1248 27.8917ZM60.1248 24.8917C56.9293 24.8917 54.3389 27.2046 54.3389 30.0578C54.3389 32.9109 56.9293 35.2239 60.1248 35.2239C63.3202 35.2239 65.9106 32.9109 65.9106 30.0578C65.9106 27.2046 63.3202 24.8917 60.1248 24.8917Z" fill="#003869"/>
</g>
<mask id="mask7" mask-type="alpha" maskUnits="userSpaceOnUse" x="63" y="30" width="12" height="6">
<path d="M74.8086 35.8479L63.2286 35.8479L63.2286 30.0582L74.8086 30.0582L74.8086 35.8479Z" fill="#DB2121"/>
</mask>
<g mask="url(#mask7)">
<path fill-rule="evenodd" clip-rule="evenodd" d="M69.0227 27.8917C67.1555 27.8917 66.2369 29.172 66.2369 30.0578C66.2369 30.9435 67.1555 32.2239 69.0227 32.2239C70.89 32.2239 71.8086 30.9435 71.8086 30.0578C71.8086 29.172 70.89 27.8917 69.0227 27.8917ZM69.0227 24.8917C65.8273 24.8917 63.2369 27.2046 63.2369 30.0578C63.2369 32.9109 65.8273 35.2239 69.0227 35.2239C72.2182 35.2239 74.8086 32.9109 74.8086 30.0578C74.8086 27.2046 72.2182 24.8917 69.0227 24.8917Z" fill="#003869"/>
</g>
<mask id="mask8" mask-type="alpha" maskUnits="userSpaceOnUse" x="72" y="30" width="12" height="6">
<path d="M83.6875 35.8479L72.1075 35.8479L72.1075 30.0582L83.6875 30.0582L83.6875 35.8479Z" fill="#DB2121"/>
</mask>
<g mask="url(#mask8)">
<path fill-rule="evenodd" clip-rule="evenodd" d="M77.9016 27.8917C76.0344 27.8917 75.1158 29.172 75.1158 30.0578C75.1158 30.9435 76.0344 32.2239 77.9016 32.2239C79.7689 32.2239 80.6875 30.9435 80.6875 30.0578C80.6875 29.172 79.7689 27.8917 77.9016 27.8917ZM77.9016 24.8917C74.7062 24.8917 72.1158 27.2046 72.1158 30.0578C72.1158 32.9109 74.7062 35.2239 77.9016 35.2239C81.0971 35.2239 83.6875 32.9109 83.6875 30.0578C83.6875 27.2046 81.0971 24.8917 77.9016 24.8917Z" fill="#003869"/>
</g>
<path fill-rule="evenodd" clip-rule="evenodd" d="M73.9354 3.69653L10.7715 3.69661C9.94306 3.69661 9.27149 3.02504 9.27148 2.19661C9.27148 1.36818 9.94306 0.696609 10.7715 0.696608L73.9354 0.696533C74.7638 0.696532 75.4354 1.3681 75.4354 2.19653C75.4354 3.02496 74.7638 3.69653 73.9354 3.69653Z" fill="#003869"/>
<path fill-rule="evenodd" clip-rule="evenodd" d="M82.3158 32.9529L2.42676 32.9529L2.42676 29.9529L82.3158 29.9529L82.3158 32.9529Z" fill="#003869"/>
<path fill-rule="evenodd" clip-rule="evenodd" d="M27.4954 43.394H18.7954V57.6065H27.4954V43.394ZM15.7954 40.394V60.6065H30.4954V40.394H15.7954Z" fill="#003869"/>
<path fill-rule="evenodd" clip-rule="evenodd" d="M48.436 43.394H36.252V73.9145H48.436V43.394ZM33.252 40.394V76.9145H51.436V40.394H33.252Z" fill="#003869"/>
<path fill-rule="evenodd" clip-rule="evenodd" d="M65.8919 43.394H57.1919V57.6065H65.8919V43.394ZM54.1919 40.394V60.6065H68.8919V40.394H54.1919Z" fill="#003869"/>
</svg>
