<svg width="86" height="87" viewBox="0 0 86 87" fill="none" xmlns="http://www.w3.org/2000/svg">
<mask id="mask0" mask-type="alpha" maskUnits="userSpaceOnUse" x="0" y="0" width="83" height="87">
<path d="M83 42H40.5L36.25 59V86.5H0V0H83V42Z" fill="#C4C4C4"/>
</mask>
<g mask="url(#mask0)">
<path fill-rule="evenodd" clip-rule="evenodd" d="M17 78V84H30V78H17Z" fill="#003869"/>
<path fill-rule="evenodd" clip-rule="evenodd" d="M10 22V32H13V22H10ZM9 19C7.89543 19 7 19.8954 7 21V33C7 34.1046 7.89543 35 9 35H14C15.1046 35 16 34.1046 16 33V21C16 19.8954 15.1046 19 14 19H9Z" fill="#003869"/>
<path fill-rule="evenodd" clip-rule="evenodd" d="M73 22V32H76V22H73ZM72 19C70.8954 19 70 19.8954 70 21V33C70 34.1046 70.8954 35 72 35H77C78.1046 35 79 34.1046 79 33V21C79 19.8954 78.1046 19 77 19H72Z" fill="#003869"/>
<path fill-rule="evenodd" clip-rule="evenodd" d="M19 20H67V56H19V20ZM52 18H35V11H23C19.134 11 16 14.134 16 18V75H70V18C70 14.134 66.866 11 63 11H52V18ZM49 13H38V15H49V13ZM31 67C31 70.3137 28.3137 73 25 73C21.6863 73 19 70.3137 19 67C19 63.6863 21.6863 61 25 61C28.3137 61 31 63.6863 31 67ZM13 18C13 12.4772 17.4772 8 23 8H63C68.5228 8 73 12.4772 73 18V78H13V18ZM64 23V53H22V23H64ZM28 67C28 68.6569 26.6569 70 25 70C23.3431 70 22 68.6569 22 67C22 65.3431 23.3431 64 25 64C26.6569 64 28 65.3431 28 67Z" fill="#003869"/>
</g>
<path fill-rule="evenodd" clip-rule="evenodd" d="M41.0102 47.7117L38 59V81H86V59L82.9898 47.7117C82.4061 45.5229 80.4239 44 78.1586 44H45.8414C43.5761 44 41.5939 45.5229 41.0102 47.7117ZM83 59.3931L80.0911 48.4847C79.8576 47.6092 79.0647 47 78.1586 47H45.8414C44.9353 47 44.1424 47.6092 43.9089 48.4847L41 59.3931V78H83V59.3931ZM70 66V74H54V66H70ZM67 69H57V71H67V69ZM47 74C44.7909 74 43 72.2091 43 70C43 67.7909 44.7909 66 47 66C49.2091 66 51 67.7909 51 70C51 72.2091 49.2091 74 47 74ZM49 70C49 68.8954 48.1046 68 47 68C45.8954 68 45 68.8954 45 70C45 71.1046 45.8954 72 47 72C48.1046 72 49 71.1046 49 70ZM81 70C81 72.2091 79.2091 74 77 74C74.7909 74 73 72.2091 73 70C73 67.7909 74.7909 66 77 66C79.2091 66 81 67.7909 81 70ZM77 68C75.8954 68 75 68.8954 75 70C75 71.1046 75.8954 72 77 72C78.1046 72 79 71.1046 79 70C79 68.8954 78.1046 68 77 68Z" fill="#003869"/>
<path d="M40 59H84V61H40V59Z" fill="#003869"/>
<path d="M40 81H49V84H40V81Z" fill="#003869"/>
<path d="M75 81H84V84H75V81Z" fill="#003869"/>
</svg>
