<svg width="86" height="87" viewBox="0 0 86 87" fill="none" xmlns="http://www.w3.org/2000/svg">
<mask id="mask0" mask-type="alpha" maskUnits="userSpaceOnUse" x="0" y="0" width="83" height="87">
<path d="M83 42H40.5L36.25 59V86.5H0V0H83V42Z" fill="#C4C4C4"/>
</mask>
<g mask="url(#mask0)">
<rect x="18.5" y="79.5" width="10" height="3" stroke="#003869" stroke-width="3"/>
<mask id="path-3-inside-1" fill="white">
<rect x="7" y="19" width="9" height="16" rx="2"/>
</mask>
<rect x="7" y="19" width="9" height="16" rx="2" stroke="#003869" stroke-width="6" mask="url(#path-3-inside-1)"/>
<mask id="path-4-inside-2" fill="white">
<rect x="70" y="19" width="9" height="16" rx="2"/>
</mask>
<rect x="70" y="19" width="9" height="16" rx="2" stroke="#003869" stroke-width="6" mask="url(#path-4-inside-2)"/>
<mask id="path-5-inside-3" fill="white">
<path fill-rule="evenodd" clip-rule="evenodd" d="M23 8C17.4772 8 13 12.4772 13 18V78H73V18C73 12.4772 68.5228 8 63 8H23ZM64 23H22V53H64V23ZM38 15H49V13H38V15ZM25 70C26.6569 70 28 68.6569 28 67C28 65.3431 26.6569 64 25 64C23.3431 64 22 65.3431 22 67C22 68.6569 23.3431 70 25 70Z"/>
</mask>
<path d="M13 78H10V81H13V78ZM73 78V81H76V78H73ZM22 23V20H19V23H22ZM64 23H67V20H64V23ZM22 53H19V56H22V53ZM64 53V56H67V53H64ZM49 15V18H52V15H49ZM38 15H35V18H38V15ZM49 13H52V10H49V13ZM38 13V10H35V13H38ZM16 18C16 14.134 19.134 11 23 11V5C15.8203 5 10 10.8203 10 18H16ZM16 78V18H10V78H16ZM73 75H13V81H73V75ZM70 18V78H76V18H70ZM63 11C66.866 11 70 14.134 70 18H76C76 10.8203 70.1797 5 63 5V11ZM23 11H63V5H23V11ZM22 26H64V20H22V26ZM25 53V23H19V53H25ZM64 50H22V56H64V50ZM61 23V53H67V23H61ZM49 12H38V18H49V12ZM46 13V15H52V13H46ZM38 16H49V10H38V16ZM41 15V13H35V15H41ZM25 67V73C28.3137 73 31 70.3137 31 67H25ZM25 67H31C31 63.6863 28.3137 61 25 61V67ZM25 67V61C21.6863 61 19 63.6863 19 67H25ZM25 67H19C19 70.3137 21.6863 73 25 73V67Z" fill="#003869" mask="url(#path-5-inside-3)"/>
</g>
<mask id="path-7-inside-4" fill="white">
<path fill-rule="evenodd" clip-rule="evenodd" d="M45.8414 44C43.5761 44 41.5939 45.5229 41.0102 47.7117L38 59V81H86V59L82.9898 47.7117C82.4061 45.5229 80.4239 44 78.1586 44H45.8414ZM57 69H67V71H57V69ZM47 71C46.4477 71 46 70.5523 46 70C46 69.4477 46.4477 69 47 69C47.5523 69 48 69.4477 48 70C48 70.5523 47.5523 71 47 71ZM78 70C78 70.5523 77.5523 71 77 71C76.4477 71 76 70.5523 76 70C76 69.4477 76.4477 69 77 69C77.5523 69 78 69.4477 78 70Z"/>
</mask>
<path d="M41.0102 47.7117L38.1115 46.9387L38.1115 46.9387L41.0102 47.7117ZM38 59L35.1013 58.227L35 58.6069V59H38ZM38 81H35V84H38V81ZM86 81V84H89V81H86ZM86 59H89V58.6069L88.8987 58.227L86 59ZM82.9898 47.7117L85.8885 46.9387V46.9387L82.9898 47.7117ZM67 69H70V66H67V69ZM57 69V66H54V69H57ZM67 71V74H70V71H67ZM57 71H54V74H57V71ZM43.9089 48.4847C44.1424 47.6092 44.9353 47 45.8414 47V41C42.217 41 39.0454 43.4367 38.1115 46.9387L43.9089 48.4847ZM40.8987 59.773L43.9089 48.4847L38.1115 46.9387L35.1013 58.227L40.8987 59.773ZM35 59V81H41V59H35ZM38 84H86V78H38V84ZM89 81V59H83V81H89ZM80.0911 48.4847L83.1013 59.773L88.8987 58.227L85.8885 46.9387L80.0911 48.4847ZM78.1586 47C79.0647 47 79.8576 47.6092 80.0911 48.4847L85.8885 46.9387C84.9546 43.4367 81.783 41 78.1586 41V47ZM45.8414 47H78.1586V41H45.8414V47ZM67 66H57V72H67V66ZM70 71V69H64V71H70ZM57 74H67V68H57V74ZM54 69V71H60V69H54ZM43 70C43 72.2091 44.7909 74 47 74V68C48.1046 68 49 68.8954 49 70H43ZM47 66C44.7909 66 43 67.7909 43 70H49C49 71.1046 48.1046 72 47 72V66ZM51 70C51 67.7909 49.2091 66 47 66V72C45.8954 72 45 71.1046 45 70H51ZM47 74C49.2091 74 51 72.2091 51 70H45C45 68.8954 45.8954 68 47 68V74ZM77 74C79.2091 74 81 72.2091 81 70H75C75 68.8954 75.8954 68 77 68V74ZM73 70C73 72.2091 74.7909 74 77 74V68C78.1046 68 79 68.8954 79 70H73ZM77 66C74.7909 66 73 67.7909 73 70H79C79 71.1046 78.1046 72 77 72V66ZM81 70C81 67.7909 79.2091 66 77 66V72C75.8954 72 75 71.1046 75 70H81Z" fill="#003869" mask="url(#path-7-inside-4)"/>
<rect x="40" y="59" width="44" height="2" fill="#003869"/>
<rect x="40" y="81" width="9" height="3" fill="#003869"/>
<rect x="75" y="81" width="9" height="3" fill="#003869"/>
</svg>
