<svg width="68" height="86" viewBox="0 0 68 86" fill="none" xmlns="http://www.w3.org/2000/svg">
<path d="M21.5834 43.6818C20.7726 52.5596 16.7322 55.8579 11.8673 55.8579C6.37019 55.8579 2 51.7351 2 40.2736C2 24.1946 11.8673 2 11.8673 2C15.5303 10.5352 18.3785 19.3974 20.3741 28.4686" stroke="#003869" stroke-width="3" stroke-linecap="round" stroke-linejoin="round"/>
<path d="M11.8672 66.0686V35.2986" stroke="#003869" stroke-width="3" stroke-linecap="round" stroke-linejoin="round"/>
<path d="M28.2212 45.8118C34.0275 45.8118 38.7344 41.1049 38.7344 35.2986C38.7344 29.4923 34.0275 24.7854 28.2212 24.7854C22.4149 24.7854 17.708 29.4923 17.708 35.2986C17.708 41.1049 22.4149 45.8118 28.2212 45.8118Z" stroke="#003869" stroke-width="3" stroke-miterlimit="10"/>
<path d="M28.2212 66.0686V35.2986" stroke="#003869" stroke-width="3" stroke-linecap="round" stroke-linejoin="round"/>
<path d="M28.2212 41.9501L25.0054 37.896" stroke="#003869" stroke-width="3" stroke-linecap="round" stroke-linejoin="round"/>
<path d="M33.7321 35.7109L28.2212 44.1353" stroke="#003869" stroke-width="3" stroke-linecap="round" stroke-linejoin="round"/>
<path d="M35.8623 56.2427H65.5054" stroke="#003869" stroke-width="3" stroke-linecap="round" stroke-linejoin="round"/>
<path d="M60.4476 49.4263H40.8779" stroke="#003869" stroke-width="3" stroke-linecap="round" stroke-linejoin="round"/>
<path d="M39.2153 65.7803L50.0583 49.4951" stroke="#003869" stroke-width="3" stroke-linecap="round" stroke-linejoin="round"/>
<path d="M61.4101 66.0689L50.0586 49.4951" stroke="#003869" stroke-width="3" stroke-linecap="round" stroke-linejoin="round"/>
<path d="M4.00635 71.2085C6.7549 71.2085 6.75491 73.586 9.64089 73.586C12.5269 73.586 12.4581 71.2085 15.2754 71.2085C18.0927 71.2085 18.0927 73.586 20.9099 73.586C23.7272 73.586 23.7272 71.2085 26.5445 71.2085C29.3617 71.2085 29.3617 73.586 32.179 73.586C34.9963 73.586 34.9276 71.2085 37.8135 71.2085C40.6995 71.2085 40.6308 73.586 43.4618 73.586C46.2928 73.586 46.279 71.2085 49.0963 71.2085C51.9136 71.2085 51.9136 73.586 54.7309 73.586C57.5481 73.586 57.4794 71.2085 60.3654 71.2085C63.2514 71.2085 63.114 73.586 66 73.586" stroke="#003869" stroke-width="3" stroke-linecap="round" stroke-linejoin="round"/>
<path d="M4.00635 76.6094C6.7549 76.6094 6.75491 79.0006 9.64089 79.0006C12.5269 79.0006 12.4581 76.6094 15.2754 76.6094C18.0927 76.6094 18.0927 79.0006 20.9099 79.0006C23.7272 79.0006 23.7272 76.6094 26.5445 76.6094C29.3617 76.6094 29.3617 79.0006 32.179 79.0006C34.9963 79.0006 34.9276 76.6094 37.8135 76.6094C40.6995 76.6094 40.6308 79.0006 43.4618 79.0006C46.2928 79.0006 46.279 76.6094 49.0963 76.6094C51.9136 76.6094 51.9136 79.0006 54.7309 79.0006C57.5481 79.0006 57.4794 76.6094 60.3654 76.6094C63.2514 76.6094 63.114 79.0006 66 79.0006" stroke="#003869" stroke-width="3" stroke-linecap="round" stroke-linejoin="round"/>
<path d="M4.00635 82.0242C6.7549 82.0242 6.75491 84.4017 9.64089 84.4017C12.5269 84.4017 12.4581 82.0242 15.2754 82.0242C18.0927 82.0242 18.0927 84.4017 20.9099 84.4017C23.7272 84.4017 23.7272 82.0242 26.5445 82.0242C29.3617 82.0242 29.3617 84.4017 32.179 84.4017C34.9963 84.4017 34.9276 82.0242 37.8135 82.0242C40.6995 82.0242 40.6308 84.4017 43.4618 84.4017C46.2928 84.4017 46.279 82.0242 49.0963 82.0242C51.9136 82.0242 51.9136 84.4017 54.7309 84.4017C57.5481 84.4017 57.4794 82.0242 60.3654 82.0242C63.2514 82.0242 63.114 84.4017 66 84.4017" stroke="#003869" stroke-width="3" stroke-linecap="round" stroke-linejoin="round"/>
</svg>
