<svg width="19" height="20" viewBox="0 0 11 12" fill="none" xmlns="http://www.w3.org/2000/svg">
<path d="M9.70312 4.3042H1.6875V0.788574C1.6875 0.683105 1.63477 0.577637 1.56445 0.489746C1.47656 0.419434 1.37109 0.366699 1.26562 0.366699H0.421875C0.298828 0.366699 0.193359 0.419434 0.123047 0.489746C0.0351562 0.577637 0 0.683105 0 0.788574V7.1167H1.6875V5.9917H8.4375V7.1167H10.125V4.72607C10.125 4.62061 10.0723 4.51514 10.002 4.42725C9.91406 4.35693 9.80859 4.3042 9.70312 4.3042ZM3.375 0.929199C3.76172 0.929199 4.07812 1.06982 4.35938 1.35107C4.64062 1.63232 4.78125 1.94873 4.78125 2.33545C4.78125 2.72217 4.64062 3.05615 4.35938 3.3374C4.07812 3.61865 3.76172 3.7417 3.375 3.7417C2.98828 3.7417 2.6543 3.61865 2.37305 3.3374C2.0918 3.05615 1.96875 2.72217 1.96875 2.33545C1.96875 1.94873 2.0918 1.63232 2.37305 1.35107C2.6543 1.06982 2.98828 0.929199 3.375 0.929199ZM10.125 3.1792V3.7417H5.0625V1.91357C5.0625 1.80811 5.09766 1.70264 5.18555 1.61475C5.25586 1.54443 5.36133 1.4917 5.48438 1.4917H8.4375C8.89453 1.4917 9.29883 1.66748 9.63281 1.98389C9.94922 2.31787 10.125 2.72217 10.125 3.1792Z" fill="white"/>
</svg>
