<svg width="85" height="60" viewBox="0 0 85 56" fill="none" xmlns="http://www.w3.org/2000/svg">
<path d="M73.8809 31.542H11.1328V40.6747H73.8809V31.542Z" stroke="#003869" stroke-width="3" stroke-linecap="round" stroke-linejoin="round"/>
<path d="M2 8.33702L2 51.4628C2 52.8568 3.13005 53.9868 4.52404 53.9868H8.60863C10.0026 53.9868 11.1327 52.8568 11.1327 51.4628L11.1327 8.33702C11.1327 6.94304 10.0026 5.81299 8.60863 5.81299H4.52404C3.13005 5.81299 2 6.94304 2 8.33702Z" stroke="#003869" stroke-width="3" stroke-linecap="round" stroke-linejoin="round"/>
<path d="M83 26.6027V51.5309C83 52.2003 82.734 52.8423 82.2607 53.3157C81.7873 53.789 81.1453 54.0549 80.4759 54.0549H76.4049C75.0479 54.0549 73.8809 53.5664 73.8809 51.5309V26.6027C73.8809 24.4993 75.0072 24.0786 76.4049 24.0786H80.4759C81.1453 24.0786 81.7873 24.3445 82.2607 24.8179C82.734 25.2912 83 25.9332 83 26.6027Z" stroke="#003869" stroke-width="3" stroke-linecap="round" stroke-linejoin="round"/>
<path d="M13.6703 31.542L30.4022 31.542C31.7962 31.542 32.9263 30.4119 32.9263 29.018V26.6025C32.9263 25.2085 31.7962 24.0784 30.4022 24.0784L13.6703 24.0784C12.2763 24.0784 11.1463 25.2085 11.1463 26.6025V29.018C11.1463 30.4119 12.2763 31.542 13.6703 31.542Z" stroke="#003869" stroke-width="3" stroke-linecap="round" stroke-linejoin="round"/>
<path d="M57.7461 50.8794V40.6611" stroke="#003869" stroke-width="3" stroke-linecap="round" stroke-linejoin="round"/>
<path d="M62.8618 50.8794H52.6436" stroke="#003869" stroke-width="3" stroke-linecap="round" stroke-linejoin="round"/>
<path d="M57.7461 31.542V18.5283" stroke="#003869" stroke-width="3" stroke-linecap="round" stroke-linejoin="round"/>
<path d="M63.2962 2H52.1959L50.1196 18.5284H65.3724L63.2962 2Z" stroke="#003869" stroke-width="3" stroke-linecap="round" stroke-linejoin="round"/>
</svg>
