<svg xmlns="http://www.w3.org/2000/svg" width="13" height="10" fill="none" viewBox="0 0 12 9"><path fill="#fff" d="M9.91 2.233c.004.097.006.196.006.293 0 2.994-2.278 6.445-6.444 6.445-1.28 0-2.47-.375-3.472-1.018a4.546 4.546 0 0 0 3.353-.937 2.267 2.267 0 0 1-2.116-1.573 2.315 2.315 0 0 0 1.023-.039A2.267 2.267 0 0 1 .443 3.182v-.028c.306.17.656.272 1.026.284A2.265 2.265 0 0 1 .77.413 6.43 6.43 0 0 0 5.437 2.78 2.264 2.264 0 0 1 7.643 0c.652 0 1.24.274 1.654.715.515-.102 1-.29 1.438-.55a2.268 2.268 0 0 1-.996 1.253 4.53 4.53 0 0 0 1.301-.357 4.574 4.574 0 0 1-1.13 1.172z"/></svg>