<svg width="97" height="87" viewBox="0 0 97 58" fill="none" xmlns="http://www.w3.org/2000/svg">
<path fill-rule="evenodd" clip-rule="evenodd" d="M46.6112 0.900373L47.6053 0L48.6049 0.905237L48.6123 0.911927C52.1696 4.13362 56.2648 9.43275 58.6904 16.0632C63.9746 11.8052 69.9203 9.39294 74.4602 8.41242L74.4855 8.40696L75.7991 8.12378L76.2088 9.39739L76.2153 9.41702C77.6045 13.735 78.4819 19.9003 77.5487 26.4356C84.1634 25.4463 90.4191 26.3236 94.79 27.726L94.8044 27.7304C94.8156 27.7339 94.8267 27.7375 94.8377 27.7413L96.1056 28.1492L95.8203 29.4725L95.8194 29.4771L95.8193 29.4772C95.0406 33.0894 93.3547 37.5936 90.5529 41.9469C88.64 44.919 86.2069 47.8207 83.1872 50.3202C75.6709 56.5415 64.6539 60.1551 49.3914 56.3669L48.5869 56.1672L48.1644 56.2889L48.1496 56.3488L48.0529 56.321L47.9563 56.3488L47.9415 56.2889L47.5188 56.1672L46.7142 56.3669C31.4517 60.1551 20.4347 56.5415 12.9184 50.3202C6.16251 44.7282 2.34299 37.1229 0.715485 31.2206C0.550015 30.6205 0.407203 30.0381 0.286267 29.4771L0.285418 29.4731L0 28.1492L1.26788 27.7413C1.28368 27.7359 1.29962 27.7308 1.31569 27.7259C5.68669 26.3236 11.9424 25.4463 18.5572 26.4356C17.6239 19.9003 18.5014 13.735 19.8906 9.41702L19.8971 9.39743L20.3068 8.12378L21.6204 8.40697L21.6457 8.41241C25.9886 9.3504 31.6179 11.5986 36.7241 15.5193C39.1683 9.14925 43.1311 4.05515 46.5881 0.921241C46.5957 0.914192 46.6034 0.907236 46.6112 0.900373ZM19.1445 29.5733C13.3211 28.5192 7.70017 29.0806 3.5458 30.1964C5.00327 35.6483 8.54913 42.8093 14.8313 48.0091C20.9114 53.0417 29.6621 56.3305 41.8737 54.3098C29.8724 49.6367 23.4289 41.9108 20.4089 33.7837C19.8886 32.3835 19.4713 30.9754 19.1445 29.5733ZM43.7738 51.8221C32.001 47.478 25.9927 40.1972 23.2211 32.7387C22.9257 31.9435 22.6665 31.1449 22.4408 30.3458C23.1668 30.5565 23.8923 30.795 24.6149 31.0635C28.7864 32.6137 32.9024 35.1763 36.48 39.1937C37.9362 43.1332 40.2247 47.1727 43.5545 51.2312C43.6284 51.4266 43.7015 51.6235 43.7738 51.8221ZM34.9272 33.5542C32.009 31.1666 28.8656 29.4427 25.6599 28.2514C24.3401 27.761 23.0133 27.3621 21.6912 27.0443C20.6913 21.3009 21.2526 15.7707 22.354 11.6696C26.3685 12.7428 31.3096 14.9482 35.712 18.5447C35.3669 19.7514 35.0803 20.9955 34.8639 22.2732C34.2618 25.8272 34.2069 29.6169 34.9272 33.5542ZM46.1781 49.696C44.2701 44.8021 41.8542 40.8331 39.1104 37.6441C37.252 32.3426 37.0528 27.3133 37.8218 22.7743C37.9341 22.111 38.0673 21.4572 38.2195 20.8136C38.8925 21.4889 39.5437 22.2023 40.1668 22.9551C43.1455 26.5538 45.5133 31.088 46.5309 36.7217C45.8973 40.5659 45.8407 44.8404 46.536 49.5724C46.5121 49.7251 46.4874 49.8783 46.4618 50.032C46.3664 49.92 46.2718 49.808 46.1781 49.696ZM50.9711 47.2193C50.556 47.7884 50.1193 48.3589 49.66 48.9307C50.2589 44.4531 50.1798 40.3913 49.575 36.7217C50.5926 31.088 52.9604 26.5538 55.9391 22.9551C56.3351 22.4767 56.7425 22.0141 57.1596 21.5672C57.2435 21.9659 57.3201 22.3683 57.3889 22.7743C58.265 27.9461 57.8844 33.7543 55.2244 39.8765C53.6591 42.0168 52.228 44.4537 50.9711 47.2193ZM53.6281 21.0422C51.3357 23.8117 49.3974 27.0566 48.0529 30.814C46.7085 27.0566 44.7702 23.8117 42.4778 21.0422C41.4365 19.7841 40.3253 18.6279 39.1683 17.5686C41.1562 11.8734 44.5116 7.18448 47.6053 4.09434C50.8139 7.29923 54.304 12.2239 56.258 18.2072C55.3447 19.0883 54.4639 20.0324 53.6281 21.0422ZM53.58 48.7308C55.3535 46.2646 56.7562 43.8116 57.8355 41.3902C61.7937 36.0846 66.6041 32.8794 71.4907 31.0635C72.2134 30.795 72.939 30.5564 73.6651 30.3457C73.4394 31.1448 73.1802 31.9435 72.8847 32.7387C70.1131 40.1973 64.1048 47.4781 52.3318 51.8222C52.7241 50.7445 53.1409 49.7146 53.58 48.7308ZM54.2321 54.3099C66.4436 56.3304 75.1943 53.0416 81.2743 48.0091C84.4154 45.4092 86.8724 42.319 88.7263 39.1973C90.5803 36.0756 91.8311 32.9224 92.5598 30.1964C88.4055 29.0806 82.7847 28.5192 76.9614 29.5733C76.6346 30.9753 76.2173 32.3835 75.697 33.7837C72.677 41.9108 66.2335 49.6368 54.2321 54.3099ZM74.4147 27.0442C73.0925 27.362 71.7656 27.761 70.4458 28.2514C66.8416 29.5907 63.3164 31.6033 60.1013 34.4753C61.009 30.2077 60.9957 26.1035 60.3468 22.2732C60.1667 21.2099 59.938 20.1699 59.6674 19.1553C64.246 15.1961 69.515 12.8022 73.7519 11.6696C74.8533 15.7706 75.4146 21.3009 74.4147 27.0442Z" fill="#003869"/>
</svg>
